<svg width="44" height="56" viewBox="0 0 44 56" fill="none" xmlns="http://www.w3.org/2000/svg">
<g clip-path="url(#clip0_604_6598)">
<path d="M0.344727 34.2865C0.344727 46.0876 9.91243 55.6553 21.7135 55.6553C33.5146 55.6553 43.0823 46.0876 43.0823 34.2865H0.344727Z" stroke="#C63527" stroke-miterlimit="10" stroke-linecap="round"/>
<path d="M10.188 34.2865C10.188 46.0876 15.3785 55.6553 21.7823 55.6553C28.186 55.6553 33.3766 46.0876 33.3766 34.2865" stroke="#C63527" stroke-miterlimit="10" stroke-linecap="round"/>
<path d="M21.7134 55.6553V34.2865" stroke="#C63527" stroke-miterlimit="10" stroke-linecap="round"/>
<path d="M37.8777 48.2521C33.9624 43.7233 28.1722 40.8489 21.7133 40.8489C15.2544 40.8489 9.46414 43.7233 5.54883 48.2521" stroke="#C63527" stroke-miterlimit="10" stroke-linecap="round"/>
<path d="M10.1055 34.2866V6.54163H25.3738V34.2866" stroke="#C63527" stroke-miterlimit="10" stroke-linecap="round"/>
<path d="M25.3115 10.1812H35.1894V34.2865" stroke="#C63527" stroke-miterlimit="10" stroke-linecap="round"/>
<path d="M35.2861 23.5402H43.1168V34.2866" stroke="#C63527" stroke-miterlimit="10" stroke-linecap="round"/>
<path d="M12.2559 6.54163V2.68835H23.2229V6.54163" stroke="#C63527" stroke-miterlimit="10" stroke-linecap="round"/>
<path d="M37.0991 23.5401V21.61H41.3039V23.5401" stroke="#C63527" stroke-miterlimit="10" stroke-linecap="round"/>
<path d="M13.2212 11.1531H22.2512" stroke="#C63527" stroke-miterlimit="10" stroke-linecap="round"/>
<path d="M13.2212 15.0615H22.2512" stroke="#C63527" stroke-miterlimit="10" stroke-linecap="round"/>
<path d="M13.2212 18.97H22.2512" stroke="#C63527" stroke-miterlimit="10" stroke-linecap="round"/>
<path d="M13.2212 22.8853H22.2512" stroke="#C63527" stroke-miterlimit="10" stroke-linecap="round"/>
<path d="M13.2212 26.7937H22.2512" stroke="#C63527" stroke-miterlimit="10" stroke-linecap="round"/>
<path d="M13.2212 30.7021H22.2512" stroke="#C63527" stroke-miterlimit="10" stroke-linecap="round"/>
<path d="M27.4897 14.9167H33.0112" stroke="#C63527" stroke-miterlimit="10" stroke-linecap="round"/>
<path d="M27.4897 18.8666H33.0112" stroke="#C63527" stroke-miterlimit="10" stroke-linecap="round"/>
<path d="M27.4897 22.8094H33.0112" stroke="#C63527" stroke-miterlimit="10" stroke-linecap="round"/>
<path d="M27.4897 26.7937H33.0112" stroke="#C63527" stroke-miterlimit="10" stroke-linecap="round"/>
<path d="M27.4897 30.7021H33.0112" stroke="#C63527" stroke-miterlimit="10" stroke-linecap="round"/>
<path d="M37.9814 26.7937H40.4216" stroke="#C63527" stroke-miterlimit="10" stroke-linecap="round"/>
<path d="M37.9814 30.7021H40.4216" stroke="#C63527" stroke-miterlimit="10" stroke-linecap="round"/>
<path d="M39.2017 18.9218V21.6101" stroke="#C63527" stroke-miterlimit="10" stroke-linecap="round"/>
<path d="M17.7363 0V2.68833" stroke="#C63527" stroke-miterlimit="10" stroke-linecap="round"/>
<path d="M3.12256 18.6184V13.4417H7.32738V16.3368" stroke="#C63527" stroke-miterlimit="10" stroke-linecap="round"/>
<path d="M2.68848 22.8784H7.76184" stroke="#C63527" stroke-miterlimit="10" stroke-linecap="round"/>
<path d="M2.68848 26.7937H7.76184" stroke="#C63527" stroke-miterlimit="10" stroke-linecap="round"/>
<path d="M2.68848 30.7021H7.76184" stroke="#C63527" stroke-miterlimit="10" stroke-linecap="round"/>
<path d="M10.1054 15.1029L0.344727 20.0177V34.2866" stroke="#C63527" stroke-miterlimit="10" stroke-linecap="round"/>
</g>
<defs>
<clipPath id="clip0_604_6598">
<rect width="43.4613" height="56" fill="white"/>
</clipPath>
</defs>
</svg>
