<svg width="48" height="58" viewBox="0 0 48 58" fill="none" xmlns="http://www.w3.org/2000/svg">
<g clip-path="url(#clip0_604_2922)">
<path d="M11.0996 46.3152H39.0556" stroke="#C63527" stroke-miterlimit="10"/>
<path d="M42.8447 43.3379V52.2638" stroke="#C63527" stroke-miterlimit="10"/>
<path d="M25.0355 10.8179V22.0359H22.2241V10.8179" stroke="#C63527" stroke-miterlimit="10"/>
<path d="M22.2241 4.71159V1.70395C22.2241 0.927791 22.8495 0.303223 23.6268 0.303223C24.404 0.303223 25.0294 0.927791 25.0294 1.70395V4.6934" stroke="#C63527" stroke-miterlimit="10"/>
<path d="M25.0231 22.0356C27.537 24.2671 24.9199 28.4875 24.9199 34.9333" stroke="#C63527" stroke-miterlimit="10"/>
<path d="M22.2361 22.0356C19.7223 24.2671 22.3394 28.4875 22.3394 34.9333" stroke="#C63527" stroke-miterlimit="10"/>
<path d="M17.6577 40.7547C17.6577 39.0326 19.0543 37.6379 20.7788 37.6379H26.4805C28.205 37.6379 29.6016 39.0326 29.6016 40.7547" stroke="#C63527" stroke-miterlimit="10"/>
<path d="M20.1592 37.4984V36.8859C20.1592 35.8126 21.0336 34.9395 22.1083 34.9395H25.1565C26.2313 34.9395 27.1057 35.8126 27.1057 36.8859V37.4984" stroke="#C63527" stroke-miterlimit="10"/>
<path d="M24.8352 10.7996H22.4306C21.7263 10.7996 21.1494 10.2296 21.1494 9.52012V5.97282C21.1494 5.26942 21.7202 4.69336 22.4306 4.69336H24.8352C25.5396 4.69336 26.1164 5.26335 26.1164 5.97282V9.52012C26.1103 10.2296 25.5396 10.7996 24.8352 10.7996Z" stroke="#C63527" stroke-miterlimit="10"/>
<path d="M39.044 13.4921C35.3339 10.9028 30.8648 9.37477 26.1104 9.302" stroke="#C63527" stroke-miterlimit="10"/>
<path d="M26.1104 6.41553C30.9498 6.77935 35.4007 8.55604 39.0561 11.3332" stroke="#C63527" stroke-miterlimit="10"/>
<path d="M40.216 30.7132C43.331 30.7132 45.9663 28.6636 46.8467 25.844H33.5913C34.4657 28.6636 37.101 30.7132 40.216 30.7132Z" stroke="#C63527" stroke-miterlimit="10"/>
<path d="M33.5913 25.8439L40.216 14.2014" stroke="#C63527" stroke-miterlimit="10"/>
<path d="M46.8466 25.8439L40.2158 14.2014" stroke="#C63527" stroke-miterlimit="10"/>
<path d="M40.2158 25.8439V14.2014" stroke="#C63527" stroke-miterlimit="10"/>
<path d="M40.2159 13.9953C41.0945 13.9953 41.8068 13.284 41.8068 12.4066C41.8068 11.5292 41.0945 10.8179 40.2159 10.8179C39.3373 10.8179 38.625 11.5292 38.625 12.4066C38.625 13.284 39.3373 13.9953 40.2159 13.9953Z" stroke="#C63527" stroke-miterlimit="10"/>
<path d="M8.21582 13.4921C11.9259 10.9028 16.395 9.37477 21.1494 9.302" stroke="#C63527" stroke-miterlimit="10"/>
<path d="M21.1494 6.41553C16.3099 6.77935 11.859 8.55604 8.20361 11.3332" stroke="#C63527" stroke-miterlimit="10"/>
<path d="M7.04383 30.7132C3.92884 30.7132 1.29354 28.6636 0.413086 25.844H13.6685C12.7941 28.6636 10.1588 30.7132 7.04383 30.7132Z" stroke="#C63527" stroke-miterlimit="10"/>
<path d="M13.6686 25.8439L7.04395 14.2014" stroke="#C63527" stroke-miterlimit="10"/>
<path d="M0.413086 25.8439L7.04383 14.2014" stroke="#C63527" stroke-miterlimit="10"/>
<path d="M7.04395 25.8439V14.2014" stroke="#C63527" stroke-miterlimit="10"/>
<path d="M7.04402 13.9953C7.92265 13.9953 8.63491 13.284 8.63491 12.4066C8.63491 11.5292 7.92265 10.8179 7.04402 10.8179C6.16539 10.8179 5.45312 11.5292 5.45312 12.4066C5.45312 13.284 6.16539 13.9953 7.04402 13.9953Z" stroke="#C63527" stroke-miterlimit="10"/>
<path d="M20.1592 54.7317H42.8446H43.9436C44.6237 54.7317 45.1763 54.1799 45.1763 53.5007C45.1763 52.8216 44.6237 52.2698 43.9436 52.2698H20.3413" stroke="#C63527" stroke-miterlimit="10"/>
<path d="M15.1077 52.2637H12.1566L10.4807 52.2698C8.00936 52.2698 6.00556 50.2688 6.00556 47.8008C6.00556 45.3328 8.00936 43.3318 10.4807 43.3318L12.1566 43.3379H43.9441C44.6242 43.3379 45.1768 42.7861 45.1768 42.1069C45.1768 41.4278 44.6242 40.876 43.9441 40.876H42.8451H11.3308H10.0557C6.22416 40.876 3.11523 43.9806 3.11523 47.8069C3.11523 51.6331 6.22416 54.7378 10.0557 54.7378H11.3308H15.1077" stroke="#C63527" stroke-miterlimit="10"/>
<path d="M20.1108 46.3152V57.2724L17.6091 54.7742L15.1074 57.2724V46.3152" stroke="#C63527" stroke-miterlimit="10"/>
<path d="M22.3394 49.2864H38.6308" stroke="#C63527" stroke-miterlimit="10"/>
</g>
<defs>
<clipPath id="clip0_604_2922">
<rect width="47.2593" height="58" fill="white"/>
</clipPath>
</defs>
</svg>
