<svg width="60" height="60" viewBox="0 0 60 60" fill="none" xmlns="http://www.w3.org/2000/svg">
<g clip-path="url(#clip0_604_2315)">
<path d="M20.8934 34.6645H7.03494C6.37206 34.0636 5.7521 33.272 5.1989 32.2896C2.90505 28.2312 2.90505 18.7935 5.1989 14.7352C7.03494 11.4875 10.0107 11.4875 11.8468 14.7352C13.3156 17.3342 13.3156 21.5452 11.8468 24.1443C10.6736 26.2235 8.76606 26.2235 7.5929 24.1443C6.65343 22.4799 6.65343 19.7855 7.5929 18.1211C8.34639 16.7906 9.56247 16.7906 10.316 18.1211" stroke="#C63527" stroke-miterlimit="10" stroke-linecap="round" stroke-linejoin="round"/>
<path d="M26.9999 7.00037C25.8118 7.02007 24.627 7.83185 23.7203 9.43573C23.3193 10.1452 22.9883 11.0192 22.7275 12" stroke="#C63527" stroke-miterlimit="10" stroke-linecap="round" stroke-linejoin="round"/>
<path d="M55.8874 34.6646H45.4482" stroke="#C63527" stroke-miterlimit="10" stroke-linecap="round" stroke-linejoin="round"/>
<path d="M39 12.303H52.7878L53.4363 12.3221C54.5236 12.4604 55.5919 13.2663 56.4264 14.7351C57.8953 17.3342 57.8953 21.5452 56.4264 24.1442C55.8494 25.1648 55.1007 25.6846 54.3424 25.7037" stroke="#C63527" stroke-miterlimit="10" stroke-linecap="round" stroke-linejoin="round"/>
<path d="M8.21289 12.303H27.0005" stroke="#C63527" stroke-miterlimit="10" stroke-linecap="round" stroke-linejoin="round"/>
<path d="M46.6934 25.7037H54.3379" stroke="#C63527" stroke-miterlimit="10" stroke-linecap="round" stroke-linejoin="round"/>
<path d="M10.2822 25.6895H21" stroke="#C63527" stroke-miterlimit="10" stroke-linecap="round" stroke-linejoin="round"/>
<path d="M27 41V57L33 52.2856L39 57V41" stroke="#C63527" stroke-miterlimit="10" stroke-linecap="round" stroke-linejoin="round"/>
<path d="M39 18V7H33H27V18" stroke="#C63527" stroke-miterlimit="10" stroke-linecap="round" stroke-linejoin="round"/>
<path d="M55.8867 34.6645C55.2238 34.0637 54.6039 33.272 54.0507 32.2896C53.1541 30.7016 52.6057 28.2933 52.4102 25.7037" stroke="#C63527" stroke-miterlimit="10" stroke-linecap="round" stroke-linejoin="round"/>
<path d="M30 7C30 17.2812 30 36.375 30 54" stroke="#C63527" stroke-linecap="round"/>
<path d="M36 7L36 17M36 54L36 42.25" stroke="#C63527" stroke-linecap="round"/>
<path d="M35.6484 17.0796L36.2922 17.9904C36.9074 18.8584 37.9947 19.259 39.0248 18.9871L40.1073 18.701C41.8098 18.2527 43.4455 19.6214 43.2977 21.3764L43.2023 22.4875C43.1117 23.5462 43.6935 24.5525 44.6569 25.0055L45.6679 25.4824C47.2607 26.2311 47.6327 28.3342 46.3927 29.5837L45.6059 30.3753C44.8572 31.1288 44.6521 32.2734 45.1004 33.2415L45.5677 34.2572C46.3069 35.8548 45.2387 37.7052 43.4837 37.8625L42.3725 37.9627C41.3138 38.0581 40.4221 38.8068 40.1455 39.8321L39.8546 40.9099C39.392 42.6076 37.389 43.3373 35.944 42.3358L35.0284 41.6968C34.1557 41.0911 32.9921 41.0911 32.1194 41.6968L31.2037 42.3358C29.7587 43.342 27.751 42.6124 27.2932 40.9099L27.0023 39.8321C26.7209 38.8068 25.8339 38.0581 24.7752 37.9627L23.6641 37.8625C21.9091 37.7052 20.8456 35.8548 21.58 34.2572L22.0331 33.2462C22.4814 32.2781 22.2763 31.1384 21.5276 30.3801L20.7407 29.5885C19.5008 28.339 19.868 26.2359 21.4656 25.4872L22.4766 25.0103C23.4399 24.5572 24.0217 23.551 23.9311 22.4923L23.8357 21.3811C23.6879 19.6262 25.3236 18.2527 27.0261 18.7058L28.1087 18.9919C29.1388 19.2637 30.2261 18.8679 30.8413 17.9952L31.4851 17.0843C32.4961 15.6394 34.6326 15.6394 35.6484 17.0796Z" fill="white" stroke="#C63527" stroke-miterlimit="10" stroke-linecap="round" stroke-linejoin="round"/>
<line x1="33.5" y1="19.5" x2="33.5" y2="29.5" stroke="#C63527" stroke-linecap="round"/>
<line x1="40.1319" y1="21.7044" x2="33.7041" y2="29.3649" stroke="#C63527" stroke-linecap="round"/>
<line x1="43.4274" y1="27.5792" x2="33.5793" y2="29.3157" stroke="#C63527" stroke-linecap="round"/>
<line x1="42.8434" y1="34.683" x2="34.1831" y2="29.683" stroke="#C63527" stroke-linecap="round"/>
<line x1="37.1209" y1="39.0378" x2="33.7007" y2="29.6409" stroke="#C63527" stroke-linecap="round"/>
<line x1="0.5" y1="-0.5" x2="10.5" y2="-0.5" transform="matrix(0.34202 -0.939693 -0.939693 -0.34202 29 39.3367)" stroke="#C63527" stroke-linecap="round"/>
<line x1="0.5" y1="-0.5" x2="10.5" y2="-0.5" transform="matrix(0.642788 0.766044 0.766044 -0.642788 26.7617 21)" stroke="#C63527" stroke-linecap="round"/>
<line x1="0.5" y1="-0.5" x2="10.5" y2="-0.5" transform="matrix(0.984808 0.173648 0.173648 -0.984808 23 27)" stroke="#C63527" stroke-linecap="round"/>
<line x1="0.5" y1="-0.5" x2="10.5" y2="-0.5" transform="matrix(0.866025 -0.5 -0.5 -0.866025 24 34.5)" stroke="#C63527" stroke-linecap="round"/>
<path d="M33.5 35C36.5376 35 39 32.5376 39 29.5C39 26.4624 36.5376 24 33.5 24C30.4624 24 28 26.4624 28 29.5C28 32.5376 30.4624 35 33.5 35Z" fill="white" stroke="#C63527" stroke-miterlimit="10" stroke-linecap="round" stroke-linejoin="round"/>
</g>
<defs>
<clipPath id="clip0_604_2315">
<rect width="55" height="55.0668" fill="white" transform="translate(3 4)"/>
</clipPath>
</defs>
</svg>
