<svg width="58" height="58" viewBox="0 0 58 58" fill="none" xmlns="http://www.w3.org/2000/svg">
<path d="M30.2111 5.86084C29.5106 5.86084 28.8988 6.24325 28.5615 6.81191C28.2241 6.2416 27.6107 5.86084 26.9118 5.86084C25.8465 5.86084 24.9829 6.74268 24.9829 7.83056C24.9829 8.3778 25.2024 8.87394 25.5559 9.22997V10.5766H28.2838H28.8423H31.5702V9.22997C31.9237 8.87229 32.1433 8.3778 32.1433 7.83056C32.1416 6.74268 31.2781 5.86084 30.2111 5.86084Z" stroke="#C63527" stroke-miterlimit="10" stroke-linecap="round"/>
<path d="M28.5615 6.81192V1" stroke="#C63527" stroke-miterlimit="10" stroke-linecap="round"/>
<path d="M27.0054 2.56592H30.1174" stroke="#C63527" stroke-miterlimit="10" stroke-linecap="round"/>
<path d="M35.4038 25.8564V38.7824C35.4038 40.1044 34.3223 41.1758 32.9874 41.1758H30.04C28.4452 41.1758 28.4936 43.3532 28.4936 43.3532C28.4936 43.3532 28.5421 41.1758 26.9473 41.1758H23.9999C22.665 41.1758 21.5835 40.1044 21.5835 38.7824V25.8564H35.4038Z" stroke="#C63527" stroke-miterlimit="10"/>
<path d="M28.6776 25.8564C28.6776 22.0867 28.4032 18.0995 23.2218 14.2688M18.6118 14.2688C18.6118 14.2688 24.1935 17.539 24.1935 25.8564" stroke="#C63527" stroke-miterlimit="10" stroke-linecap="round"/>
<path d="M26.2678 14.2688C26.2678 14.2688 20.7588 14.2688 18.2891 14.2688C15.8195 14.2688 15.8179 16.1693 15.8179 20.0626C15.8179 18.0995 16.9946 17.7879 18.0325 17.7879C19.0704 17.7879 22.0081 17.7879 22.0081 17.7879" stroke="#C63527" stroke-miterlimit="10" stroke-linecap="round"/>
<path d="M21.0429 14.2507C22.2463 14.2507 23.222 13.2545 23.222 12.0255C23.222 10.7966 22.2463 9.80029 21.0429 9.80029C19.8394 9.80029 18.8638 10.7966 18.8638 12.0255C18.8638 13.2545 19.8394 14.2507 21.0429 14.2507Z" stroke="#C63527" stroke-miterlimit="10" stroke-linecap="round"/>
<path d="M21.0425 9.80026V7.3855" stroke="#C63527" stroke-miterlimit="10" stroke-linecap="round"/>
<path d="M24.9828 41.1774C23.2895 41.1774 22.5922 42.1449 22.5922 43.8229H17.8789C17.8789 40.8098 19.6399 39.4302 21.585 38.6373" stroke="#C63527" stroke-miterlimit="10" stroke-linecap="round"/>
<path d="M13.1899 47.3024H19.0461C19.8677 47.3024 20.5327 46.6233 20.5327 45.7844V43.8229" stroke="#C63527" stroke-miterlimit="10" stroke-linecap="round"/>
<path d="M21.5849 26.8107C21.5849 27.8557 20.7552 28.703 19.7318 28.703C18.7085 28.703 17.8788 27.8557 17.8788 26.8107C17.8788 26.2684 18.1032 25.7772 18.4615 25.4327L6.07295 10.9985C6.07295 10.9985 4.83813 16.9753 7.76619 19.8499" stroke="#C63527" stroke-miterlimit="10" stroke-linecap="round"/>
<path d="M16.8799 27.0926L15.5708 26.0575L14.5652 25.2614L13.7001 24.5773L4.80935 17.5424C4.80935 17.5424 4.71411 23.6493 8.1248 25.9026" stroke="#C63527" stroke-miterlimit="10" stroke-linecap="round"/>
<path d="M21.5851 32.888L3.87305 23.6229C3.87305 23.6229 4.88512 29.6425 8.64607 31.2117" stroke="#C63527" stroke-miterlimit="10" stroke-linecap="round"/>
<path d="M18.3307 31.182L6.1084 31.1837C6.1084 31.1837 8.12608 33.933 10.8427 35.1577" stroke="#C63527" stroke-miterlimit="10" stroke-linecap="round"/>
<path d="M17.2187 31.182L9.89697 35.7313C9.89697 35.7313 13.1882 37.3401 17.5077 35.5368" stroke="#C63527" stroke-miterlimit="10" stroke-linecap="round"/>
<path d="M19.2883 31.6881L16.6733 37.3418C16.6733 37.3418 19.4012 36.7715 21.5852 35.1743" stroke="#C63527" stroke-miterlimit="10" stroke-linecap="round"/>
<path d="M4.69485 38.2731C5.63089 38.2731 6.3897 37.4982 6.3897 36.5424C6.3897 35.5865 5.63089 34.8116 4.69485 34.8116C3.75881 34.8116 3 35.5865 3 36.5424C3 37.4982 3.75881 38.2731 4.69485 38.2731Z" stroke="#C63527" stroke-miterlimit="10"/>
<path d="M5.81494 37.8396L15.5402 50.3881" stroke="#C63527" stroke-miterlimit="10" stroke-linecap="round"/>
<path d="M28.6777 25.8564C28.6777 22.0867 28.9521 18.0995 34.1335 14.2688M38.7435 14.2688C38.7435 14.2688 33.1618 17.539 33.1618 25.8564" stroke="#C63527" stroke-miterlimit="10" stroke-linecap="round"/>
<path d="M31.0859 14.2688C31.0859 14.2688 36.595 14.2688 39.0647 14.2688C41.5343 14.2688 41.5359 16.1693 41.5359 20.0626C41.5359 18.0995 40.3592 17.7879 39.3213 17.7879C38.2834 17.7879 35.3457 17.7879 35.3457 17.7879" stroke="#C63527" stroke-miterlimit="10" stroke-linecap="round"/>
<path d="M36.3109 14.2507C37.5144 14.2507 38.49 13.2545 38.49 12.0255C38.49 10.7966 37.5144 9.80029 36.3109 9.80029C35.1074 9.80029 34.1318 10.7966 34.1318 12.0255C34.1318 13.2545 35.1074 14.2507 36.3109 14.2507Z" stroke="#C63527" stroke-miterlimit="10" stroke-linecap="round"/>
<path d="M36.3115 9.80026V7.3855" stroke="#C63527" stroke-miterlimit="10" stroke-linecap="round"/>
<path d="M32.373 41.1774C34.0663 41.1774 34.7636 42.1449 34.7636 43.8229H39.4769C39.4769 40.8098 37.7159 39.4302 35.7708 38.6373" stroke="#C63527" stroke-miterlimit="10" stroke-linecap="round"/>
<path d="M43.0341 47.3024H38.3079C37.4863 47.3024 36.8213 46.6233 36.8213 45.7844V43.8229" stroke="#C63527" stroke-miterlimit="10" stroke-linecap="round"/>
<path d="M35.769 26.8107C35.769 27.8557 36.5987 28.703 37.6221 28.703C38.6454 28.703 39.4751 27.8557 39.4751 26.8107C39.4751 26.2684 39.2508 25.7772 38.8924 25.4327L51.2794 10.9985C51.2794 10.9985 52.5142 16.9753 49.5861 19.8499" stroke="#C63527" stroke-miterlimit="10" stroke-linecap="round"/>
<path d="M40.4741 27.0926L41.7832 26.0575L42.7888 25.2614L43.654 24.5773L52.5447 17.5424C52.5447 17.5424 52.6399 23.6493 49.2292 25.9026" stroke="#C63527" stroke-miterlimit="10" stroke-linecap="round"/>
<path d="M35.769 32.8881L53.481 23.6213C53.481 23.6213 52.469 29.6409 48.708 31.2101" stroke="#C63527" stroke-miterlimit="10" stroke-linecap="round"/>
<path d="M39.0229 31.182L51.2453 31.1837C51.2453 31.1837 49.2276 33.933 46.511 35.1577" stroke="#C63527" stroke-miterlimit="10" stroke-linecap="round"/>
<path d="M40.1351 31.182L47.4569 35.7313C47.4569 35.7313 44.1656 37.3401 39.8462 35.5368" stroke="#C63527" stroke-miterlimit="10" stroke-linecap="round"/>
<path d="M38.066 31.6881L40.6809 37.3418C40.6809 37.3418 37.953 36.7715 35.769 35.1743" stroke="#C63527" stroke-miterlimit="10" stroke-linecap="round"/>
<path d="M45.2715 48.4085C46.779 48.4085 48.001 47.1606 48.001 45.6213C48.001 44.0819 46.779 42.834 45.2715 42.834C43.764 42.834 42.542 44.0819 42.542 45.6213C42.542 47.1606 43.764 48.4085 45.2715 48.4085Z" stroke="#C63527" stroke-miterlimit="10" stroke-linecap="round"/>
<path d="M45.2715 42.834V40.4341" stroke="#C63527" stroke-miterlimit="10" stroke-linecap="round"/>
<path d="M21.4307 55.1996V53.0304C21.4307 51.0953 22.3007 49.2673 23.7905 48.0723L27.7549 44.9026C28.2214 44.5301 28.4942 43.9581 28.4942 43.3516V58" stroke="#C63527" stroke-miterlimit="10" stroke-linecap="round"/>
<path d="M28.4938 43.1356C28.4938 44.2103 28.2356 45.2685 27.74 46.2179L25.845 49.8475C25.2784 50.9337 24.9814 52.1436 24.9814 53.3749V56.2182" stroke="#C63527" stroke-miterlimit="10" stroke-linecap="round"/>
<path d="M35.5571 55.1996V53.0304C35.5571 51.0953 34.6871 49.2673 33.1973 48.0723L29.2329 44.9026C28.7664 44.5301 28.4937 43.9581 28.4937 43.3516" stroke="#C63527" stroke-miterlimit="10" stroke-linecap="round"/>
<path d="M28.4937 43.1356C28.4937 44.2103 28.7519 45.2685 29.2475 46.2179L31.1425 49.8475C31.709 50.9337 32.006 52.1436 32.006 53.3749V56.2182" stroke="#C63527" stroke-miterlimit="10" stroke-linecap="round"/>
<path d="M24.6504 38.2731V35.049C24.6504 33.8556 25.5979 32.8881 26.7665 32.8881H30.5953C31.4782 32.8881 32.2917 33.3776 32.7179 34.1671L33.2538 35.1578" stroke="#C63527" stroke-miterlimit="10" stroke-linecap="round"/>
<path d="M27.6255 38.273V28.7458" stroke="#C63527" stroke-miterlimit="10" stroke-linecap="round"/>
<path d="M26.1143 30.4205H27.6251" stroke="#C63527" stroke-miterlimit="10" stroke-linecap="round"/>
<path d="M33.2524 30.7519C33.2524 29.842 32.5309 29.1052 31.6399 29.1052C30.7489 29.1052 30.0273 29.842 30.0273 30.7519V32.8897" stroke="#C63527" stroke-miterlimit="10" stroke-linecap="round"/>
<path d="M29.1797 32.8881L31.4217 38.2731" stroke="#C63527" stroke-miterlimit="10" stroke-linecap="round"/>
</svg>
