<svg width="60" height="60" viewBox="0 0 60 60" fill="none" xmlns="http://www.w3.org/2000/svg">
<g clip-path="url(#clip0_441_3428)">
<path d="M50.5395 29.1831C54.4904 29.1831 57.6933 27.8561 57.6933 26.2192C57.6933 24.5822 54.4904 23.2552 50.5395 23.2552C46.5886 23.2552 43.3857 24.5822 43.3857 26.2192C43.3857 27.8561 46.5886 29.1831 50.5395 29.1831Z" stroke="#C63527" stroke-miterlimit="10"/>
<path d="M57.6933 29.7561C57.6933 31.3952 54.4886 32.72 50.5395 32.72C46.5843 32.72 43.3857 31.3952 43.3857 29.7561" stroke="#C63527" stroke-miterlimit="10"/>
<path d="M57.6933 33.2993C57.6933 34.9384 54.4886 36.2632 50.5395 36.2632C46.5843 36.2632 43.3857 34.9384 43.3857 33.2993" stroke="#C63527" stroke-miterlimit="10"/>
<path d="M57.6933 36.8362C57.6933 38.4753 54.4886 39.8001 50.5395 39.8001C46.5843 39.8001 43.3857 38.4753 43.3857 36.8362" stroke="#C63527" stroke-miterlimit="10"/>
<path d="M57.6933 40.3732C57.6933 42.0123 54.4886 43.3371 50.5395 43.3371C46.5843 43.3371 43.3857 42.0123 43.3857 40.3732" stroke="#C63527" stroke-miterlimit="10"/>
<path d="M57.6933 43.9102C57.6933 45.5492 54.4886 46.8741 50.5395 46.8741C46.5843 46.8741 43.3857 45.5492 43.3857 43.9102" stroke="#C63527" stroke-miterlimit="10"/>
<path d="M57.6933 47.4471C57.6933 49.0862 54.4886 50.4111 50.5395 50.4111C46.5843 50.4111 43.3857 49.0862 43.3857 47.4471" stroke="#C63527" stroke-miterlimit="10"/>
<path d="M57.6924 26.2191V47.4471" stroke="#C63527" stroke-miterlimit="10"/>
<path d="M43.3789 26.2191V47.4471" stroke="#C63527" stroke-miterlimit="10"/>
<path d="M36.2251 41.581C40.176 41.581 43.3788 40.254 43.3788 38.6171C43.3788 36.9802 40.176 35.6532 36.2251 35.6532C32.2741 35.6532 29.0713 36.9802 29.0713 38.6171C29.0713 40.254 32.2741 41.581 36.2251 41.581Z" stroke="#C63527" stroke-miterlimit="10"/>
<path d="M29.0713 42.1541C29.0713 43.7931 32.276 45.118 36.2251 45.118C40.1741 45.118 43.3788 43.7931 43.3788 42.1541" stroke="#C63527" stroke-miterlimit="10"/>
<path d="M29.0713 45.691C29.0713 47.3301 32.276 48.6549 36.2251 48.6549C40.1741 48.6549 43.3788 47.3301 43.3788 45.691" stroke="#C63527" stroke-miterlimit="10"/>
<path d="M29.0713 49.228C29.0713 50.8671 32.276 52.1919 36.2251 52.1919C40.1741 52.1919 43.3788 50.8671 43.3788 49.228" stroke="#C63527" stroke-miterlimit="10"/>
<path d="M29.0713 38.6171V49.228" stroke="#C63527" stroke-miterlimit="10"/>
<path d="M43.3789 38.6171V49.228" stroke="#C63527" stroke-miterlimit="10"/>
<path d="M53.9649 23.6188V12.059C53.9649 9.43399 51.8428 7.30811 49.2224 7.30811H7.05015C4.42976 7.30811 2.30762 9.43399 2.30762 12.059V36.8301C2.30762 39.4551 4.42976 41.581 7.05015 41.581H29.0712" stroke="#C63527" stroke-miterlimit="10" stroke-linecap="round"/>
<path d="M50.2556 23.2553V16.3354C47.6537 15.6021 45.5931 13.5933 44.7749 11.0238H11.8417C10.9929 13.7043 8.77846 15.7747 6.0166 16.4279V32.5291C8.77846 33.1761 10.9929 35.2527 11.8417 37.9393H29.2618" stroke="#C63527" stroke-miterlimit="10" stroke-linecap="round"/>
<path d="M11.2823 25.9727C12.1248 25.9727 12.8078 25.2885 12.8078 24.4446C12.8078 23.6006 12.1248 22.9164 11.2823 22.9164C10.4398 22.9164 9.75684 23.6006 9.75684 24.4446C9.75684 25.2885 10.4398 25.9727 11.2823 25.9727Z" stroke="#C63527" stroke-miterlimit="10" stroke-linecap="round"/>
<path d="M34.4659 35.7456C37.6399 33.3425 39.7436 29.1955 39.7436 24.4816C39.7436 17.0502 34.5274 11.0238 28.0995 11.0238C21.6715 11.0238 16.4492 17.0441 16.4492 24.4754C16.4492 31.9067 21.6654 37.9331 28.0933 37.9331C28.487 37.9331 28.8684 37.9085 29.2497 37.8654" stroke="#C63527" stroke-miterlimit="10" stroke-linecap="round"/>
<path d="M24.6116 33.5951V15.3618H29.1634C32.0852 15.3618 34.4473 17.7342 34.4473 20.655C34.4473 23.5757 32.0791 25.9481 29.1634 25.9481H20.5088" stroke="#C63527" stroke-miterlimit="10" stroke-linecap="round"/>
<path d="M21.124 28.8196H32.9342" stroke="#C63527" stroke-miterlimit="10" stroke-linecap="round"/>
</g>
<defs>
<clipPath id="clip0_441_3428">
<rect width="56" height="45.5" fill="white" transform="translate(2 7)"/>
</clipPath>
</defs>
</svg>
