<svg width="25" height="25" viewBox="0 0 25 25" fill="none" xmlns="http://www.w3.org/2000/svg">
<g clip-path="url(#clip0_71_2448)">
<path d="M9.375 4.73957C11.4332 3.91077 13.7363 3.93353 15.7777 4.80283C17.8191 5.67214 19.4316 7.3168 20.2604 9.37499C21.0892 11.4332 21.0665 13.7363 20.1972 15.7777C19.3278 17.8191 17.6832 19.4316 15.625 20.2604M15.625 17.7083V20.8333H18.75" stroke="#75787B" stroke-linecap="round" stroke-linejoin="round"/>
<path d="M5.86462 7.45834V7.46834" stroke="#75787B" stroke-linecap="round" stroke-linejoin="round"/>
<path d="M4.22913 11.4583V11.4683" stroke="#75787B" stroke-linecap="round" stroke-linejoin="round"/>
<path d="M4.82288 15.7292V15.7392" stroke="#75787B" stroke-linecap="round" stroke-linejoin="round"/>
<path d="M7.45837 19.1354V19.1454" stroke="#75787B" stroke-linecap="round" stroke-linejoin="round"/>
<path d="M11.4583 20.7708V20.7808" stroke="#75787B" stroke-linecap="round" stroke-linejoin="round"/>
<path d="M12.0453 13.5938V14.25H8.70935V13.686L10.3295 11.9189C10.5072 11.7184 10.6473 11.5452 10.7499 11.3994C10.8524 11.2536 10.9242 11.1226 10.9652 11.0063C11.0085 10.8879 11.0302 10.7728 11.0302 10.6611C11.0302 10.5039 11.0005 10.366 10.9413 10.2476C10.8843 10.1268 10.8 10.0322 10.6884 9.96387C10.5767 9.89323 10.4411 9.85791 10.2816 9.85791C10.097 9.85791 9.9421 9.89779 9.81677 9.97754C9.69145 10.0573 9.59688 10.1678 9.53308 10.3091C9.46928 10.4481 9.43738 10.6076 9.43738 10.7876H8.61365C8.61365 10.4982 8.67973 10.2339 8.81189 9.99463C8.94405 9.75309 9.13546 9.56169 9.38611 9.42041C9.63676 9.27686 9.93868 9.20508 10.2919 9.20508C10.6246 9.20508 10.9071 9.2609 11.1395 9.37256C11.3719 9.48421 11.5485 9.64258 11.6693 9.84766C11.7924 10.0527 11.8539 10.2954 11.8539 10.5757C11.8539 10.7306 11.8288 10.8844 11.7787 11.0371C11.7286 11.1898 11.6568 11.3424 11.5634 11.4951C11.4722 11.6455 11.364 11.797 11.2386 11.9497C11.1133 12.1001 10.9755 12.2528 10.8251 12.4077L9.74841 13.5938H12.0453ZM16.3261 12.4761V13.1323H12.7372L12.7099 12.6367L14.8564 9.27344H15.516L14.8017 10.4971L13.5678 12.4761H16.3261ZM15.704 9.27344V14.25H14.8803V9.27344H15.704Z" fill="#75787B"/>
</g>
<defs>
<clipPath id="clip0_71_2448">
<rect width="25" height="25" fill="white"/>
</clipPath>
</defs>
</svg>
