<svg width="41" height="48" viewBox="0 0 41 48" fill="none" xmlns="http://www.w3.org/2000/svg">
<g clip-path="url(#clip0_457_7689)">
<path d="M40.0882 23.5928V45.5955C40.0882 46.7671 39.1518 47.7155 37.9951 47.7155H2.36848C1.21177 47.7155 0.275391 46.7671 0.275391 45.5955V17.8968C0.275391 16.7253 1.21177 15.7769 2.36848 15.7769H13.1479C13.7042 15.7769 14.2385 16 14.6296 16.3961L19.0581 20.8815C19.4547 21.2831 19.989 21.5063 20.5453 21.5007L37.9896 21.4672C39.1518 21.4728 40.0882 22.4212 40.0882 23.5928Z" stroke="#C63527" stroke-miterlimit="10"/>
<path d="M3.27185 15.7767V2.10866C3.27185 1.09889 4.08155 0.278809 5.07852 0.278809H26.2463L37.2516 11.4253V21.4727" stroke="#C63527" stroke-miterlimit="10"/>
<path d="M37.2516 11.4253H27.9979C27.0285 11.4253 26.2408 10.6275 26.2408 9.64561V0.278809" stroke="#C63527" stroke-miterlimit="10"/>
<path d="M7.24878 5.85205H21.8729" stroke="#C63527" stroke-miterlimit="10"/>
<path d="M7.24878 9.92432H21.8729" stroke="#C63527" stroke-miterlimit="10"/>
<path d="M26.2739 45.1881H13.7814C12.6577 45.1881 11.7489 44.2676 11.7489 43.1295V35.8603C11.7489 34.7223 12.6577 33.8018 13.7814 33.8018H26.2739C27.3975 33.8018 28.3064 34.7223 28.3064 35.8603V43.1351C28.3009 44.2676 27.392 45.1881 26.2739 45.1881Z" stroke="#C63527" stroke-miterlimit="10"/>
<path d="M20.0276 40.2178C21.0254 40.2178 21.8343 39.3985 21.8343 38.388C21.8343 37.3774 21.0254 36.5581 20.0276 36.5581C19.0298 36.5581 18.2209 37.3774 18.2209 38.388C18.2209 39.3985 19.0298 40.2178 20.0276 40.2178Z" stroke="#C63527" stroke-miterlimit="10"/>
<path d="M20.0276 40.2231V42.3989" stroke="#C63527" stroke-miterlimit="10"/>
<path d="M14.1614 33.8019V30.2315C14.1614 26.9567 16.7943 24.29 20.0275 24.29C23.2608 24.29 25.8937 26.9567 25.8937 30.2315V33.8019" stroke="#C63527" stroke-miterlimit="10"/>
<path d="M23.1397 33.802V30.2316C23.1397 28.491 21.7462 27.0796 20.0276 27.0796C18.3091 27.0796 16.9155 28.491 16.9155 30.2316V33.802" stroke="#C63527" stroke-miterlimit="10"/>
</g>
<defs>
<clipPath id="clip0_457_7689">
<rect width="40.3636" height="48" fill="white"/>
</clipPath>
</defs>
</svg>
