<svg width="244" height="329" viewBox="0 0 244 329" fill="none" xmlns="http://www.w3.org/2000/svg">
<g style="mix-blend-mode:multiply" opacity="1">
<path d="M69.8268 180.578V177.16L57.0452 181.907V185.325V220.452V261.37L69.8268 268.681V233.079V220.357H118.664C163.113 220.357 199.36 184.28 199.36 140.039C199.36 137.476 199.264 134.912 198.978 132.444C198.501 127.032 197.357 121.716 195.831 116.684C194.591 112.602 192.969 108.614 191.157 104.912C188.772 100.07 185.91 95.4178 182.572 91.1456C167.787 72.0629 144.609 59.8159 118.664 59.8159H63.436H57.0452V81.0821V137.855V141.273L69.8268 136.526V133.108V85.2594V81.0821V72.5376H118.664C139.172 72.5376 157.486 81.6517 169.886 95.8925C173.51 99.9749 176.563 104.532 179.043 109.374C180.95 113.076 182.572 117.064 183.812 121.146C185.338 126.273 186.197 131.589 186.387 137.096C186.387 138.045 186.578 139.09 186.578 140.039C186.578 177.35 156.055 207.635 118.664 207.635H69.8268V194.913V180.578Z" fill="#a62a1e"/>
<path d="M236.369 1.61854C200.504 8.54905 162.16 12.0618 122.479 12.0618C82.7992 12.0618 44.4544 8.54905 8.58955 1.61854L0.95874 0.194458V79.5631L13.7403 74.8162V15.4796C48.2698 21.6506 84.8023 24.6886 122.479 24.6886C160.157 24.6886 196.689 21.5556 231.218 15.4796V77.4745V90.0064L203.08 100.45C204.892 104.247 206.418 108.235 207.754 112.222L239.803 100.26L243.905 98.7407V0.194458L236.369 1.61854Z" fill="#a62a1e"/>
<path d="M231.218 179.723V220.547C231.218 239.44 221.012 257.003 204.606 266.497L122.479 313.682L69.8268 283.396L57.0452 276.086L40.3528 266.497C23.9466 257.098 13.7403 239.44 13.7403 220.547V197.097V184.565L57.0452 168.426L69.8268 163.679L124.769 143.267L171.793 125.798C170.649 121.621 169.123 117.728 167.024 114.026L120.286 131.4L69.7314 150.197L56.9498 154.944L4.96492 174.312L0.95874 175.736V220.547C0.95874 243.902 13.645 265.738 33.962 277.415L57.0452 290.706L60.956 292.985L122.479 328.302L210.997 277.415C231.314 265.738 244 243.902 244 220.547V179.723V164.438L231.218 169.185V179.723Z" fill="#a62a1e"/>
</g>
</svg>
