<svg width="192" height="64" viewBox="0 0 192 64" fill="none" xmlns="http://www.w3.org/2000/svg">
<g clip-path="url(#clip0_71_3018)">
<path d="M13.3062 35.4575V34.7972L10.8367 35.7143V36.3747V43.1617V51.0677L13.3062 52.4802V45.6014V43.1434H22.7422C31.3304 43.1434 38.3337 36.1729 38.3337 27.6249C38.3337 27.1296 38.3153 26.6344 38.26 26.1574C38.1678 25.1119 37.9467 24.0846 37.6518 23.1124C37.4122 22.3237 37.0989 21.5532 36.7487 20.8379C36.288 19.9023 35.7351 19.0035 35.0901 18.1781C32.2335 14.491 27.7551 12.1248 22.7422 12.1248H12.0715H10.8367V16.2337V27.203V27.8634L13.3062 26.9462V26.2858V17.0408V16.2337V14.5828H22.7422C26.7046 14.5828 30.2431 16.3437 32.6389 19.0952C33.3393 19.884 33.929 20.7645 34.4082 21.7C34.7768 22.4154 35.0901 23.1858 35.3297 23.9746C35.6245 24.9651 35.7904 25.9923 35.8273 27.0563C35.8273 27.2397 35.8641 27.4415 35.8641 27.6249C35.8641 34.8338 29.9666 40.6854 22.7422 40.6854H13.3062V38.2274V35.4575Z" fill="#C63527"/>
<path d="M45.4844 0.880375C38.5548 2.21944 31.1461 2.89815 23.4794 2.89815C15.8126 2.89815 8.40392 2.21944 1.47437 0.880375L0 0.605225V15.9403L2.46957 15.0231V3.55851C9.1411 4.75083 16.1997 5.33781 23.4794 5.33781C30.7591 5.33781 37.8176 4.73248 44.4892 3.55851V15.5367V17.958L39.0524 19.9758C39.4026 20.7096 39.6974 21.48 39.9555 22.2504L46.1478 19.9391L46.9403 19.6456V0.605225L45.4844 0.880375Z" fill="#C63527"/>
<path d="M44.4892 35.2925V43.1801C44.4892 46.8305 42.5172 50.224 39.3473 52.0583L23.4794 61.175L13.3062 55.3234L10.8366 53.911L7.61144 52.0583C4.44154 50.2423 2.46957 46.8305 2.46957 43.1801V38.6493V36.228L10.8366 33.1096L13.3062 32.1925L23.9217 28.2486L33.0075 24.8735C32.7863 24.0663 32.4915 23.3143 32.086 22.5989L23.0555 25.9557L13.2878 29.5877L10.8182 30.5049L0.774045 34.2469L0 34.5221V43.1801C0 47.6926 2.45114 51.9116 6.37666 54.1678L10.8366 56.7359L11.5922 57.1761L23.4794 63.9999L40.5821 54.1678C44.5076 51.9116 46.9587 47.6926 46.9587 43.1801V35.2925V32.3392L44.4892 33.2564V35.2925Z" fill="#C63527"/>
<path d="M64.7066 51.6548H61.9606L61.3524 53.3608H60.4678L62.9742 46.8489H63.7298L66.2362 53.3608H65.3516L64.7066 51.6548ZM62.237 50.9578H64.467L63.3428 47.9128L62.237 50.9578Z" fill="white"/>
<path d="M67.3974 52.682L67.6923 52.3335C68.024 51.9116 68.2083 51.2879 68.2452 50.4441L68.3189 48.5181H71.4519V52.682H72.0785V54.7915H71.2492V53.3607H67.8581V54.7915H67.0288V52.682H67.3974ZM68.3926 52.682H70.6226V49.2701H69.1298L69.0745 50.4258C69.0192 51.398 68.7981 52.15 68.3926 52.682Z" fill="white"/>
<path d="M73.5344 53.3607V48.5181H75.4327C76.0777 48.5181 76.5753 48.6281 76.9255 48.8482C77.2756 49.0684 77.4415 49.3985 77.4415 49.8388C77.4415 50.0589 77.3678 50.2607 77.2388 50.4441C77.1098 50.6276 76.907 50.756 76.649 50.866C76.9439 50.9394 77.1835 51.0678 77.3494 51.2696C77.5337 51.4713 77.6074 51.7098 77.6074 51.985C77.6074 52.4252 77.4415 52.7737 77.1098 53.0122C76.778 53.2507 76.3173 53.3607 75.7091 53.3607H73.5344ZM74.3638 50.5725H75.4327C76.2067 50.5725 76.5937 50.3524 76.5937 49.8938C76.5937 49.4352 76.2251 49.1968 75.488 49.1968H74.3453V50.5725H74.3638ZM74.3638 51.2329V52.7004H75.746C76.0961 52.7004 76.3542 52.627 76.52 52.4986C76.6859 52.3702 76.778 52.1867 76.778 51.9666C76.778 51.4897 76.4279 51.2329 75.7091 51.2329H74.3638Z" fill="white"/>
<path d="M78.9711 50.8846C78.9711 50.4076 79.0632 49.9857 79.2475 49.6005C79.4318 49.2153 79.6898 48.9218 80.0216 48.72C80.3533 48.5183 80.7403 48.4082 81.1642 48.4082C81.8277 48.4082 82.3621 48.6283 82.7676 49.0869C83.173 49.5455 83.3758 50.1508 83.3758 50.9029V50.9579C83.3758 51.4349 83.2836 51.8568 83.0993 52.2236C82.915 52.5905 82.657 52.884 82.3253 53.1041C81.9935 53.3059 81.6065 53.4159 81.1642 53.4159C80.5007 53.4159 79.9663 53.1775 79.5608 52.7372C79.1554 52.2787 78.9526 51.6733 78.9526 50.9212V50.8846H78.9711ZM79.8004 50.9946C79.8004 51.5266 79.9294 51.9668 80.169 52.297C80.4086 52.6272 80.7587 52.7923 81.1826 52.7923C81.6065 52.7923 81.9382 52.6272 82.1963 52.297C82.4543 51.9668 82.5648 51.5082 82.5648 50.9029C82.5648 50.3709 82.4358 49.949 82.1778 49.6189C81.9198 49.2887 81.5881 49.1236 81.1642 49.1236C80.7587 49.1236 80.427 49.2887 80.169 49.6189C79.9294 49.9124 79.8004 50.3893 79.8004 50.9946Z" fill="white"/>
<path d="M86.4168 51.2879H85.8086V53.3607H84.9792V48.5181H85.8086V50.5725H86.3615L88.0017 48.5181H89.0153L87.0987 50.8477L89.1812 53.3607H88.1307L86.4168 51.2879Z" fill="white"/>
<path d="M93.3462 53.3609C93.2909 53.2692 93.254 53.1041 93.2356 52.8473C92.8486 53.2508 92.3878 53.4526 91.8534 53.4526C91.3742 53.4526 90.9872 53.3242 90.6739 53.049C90.3606 52.7739 90.2131 52.4437 90.2131 52.0218C90.2131 51.5082 90.4159 51.123 90.7844 50.8478C91.153 50.5727 91.7059 50.4259 92.4063 50.4259H93.2172V50.0407C93.2172 49.7472 93.125 49.5271 92.9591 49.3437C92.7933 49.1786 92.5353 49.0869 92.1851 49.0869C91.8902 49.0869 91.6322 49.1602 91.4295 49.307C91.2268 49.4537 91.1346 49.6372 91.1346 49.8573H90.3053C90.3053 49.6188 90.3974 49.3804 90.5633 49.1602C90.7292 48.9401 90.9687 48.7567 91.2636 48.6283C91.5585 48.4999 91.8902 48.4265 92.2404 48.4265C92.7933 48.4265 93.2356 48.5733 93.5673 48.8484C93.8991 49.1236 94.0465 49.5088 94.0649 50.004V52.2419C94.0649 52.6822 94.1202 53.0307 94.2308 53.3058V53.3792H93.3462V53.3609ZM91.964 52.7189C92.222 52.7189 92.48 52.6455 92.7011 52.5171C92.9223 52.3887 93.1066 52.2052 93.2172 51.9851V50.9946H92.5721C91.5585 50.9946 91.0425 51.2881 91.0425 51.8934C91.0425 52.1502 91.1346 52.352 91.3005 52.4987C91.4664 52.6455 91.6875 52.7189 91.964 52.7189Z" fill="white"/>
<path d="M99.3542 49.1785H97.714V53.3607H96.8846V49.1785H95.2812V48.4998H99.3542V49.1785Z" fill="white"/>
<path d="M102.229 52.7737C102.524 52.7737 102.782 52.682 103.003 52.4986C103.225 52.3152 103.354 52.095 103.372 51.8199H104.164C104.146 52.095 104.054 52.3518 103.87 52.6087C103.685 52.8655 103.464 53.0672 103.169 53.214C102.874 53.3607 102.561 53.4341 102.229 53.4341C101.566 53.4341 101.031 53.214 100.644 52.7737C100.257 52.3335 100.055 51.7282 100.055 50.9578V50.811C100.055 50.3341 100.147 49.9122 100.313 49.5453C100.479 49.1784 100.737 48.885 101.068 48.6832C101.4 48.4814 101.787 48.3713 102.229 48.3713C102.782 48.3713 103.225 48.5364 103.593 48.8666C103.962 49.1968 104.146 49.6187 104.164 50.1323H103.372C103.354 49.8205 103.225 49.5637 103.022 49.3619C102.801 49.1601 102.543 49.05 102.229 49.05C101.806 49.05 101.474 49.1968 101.253 49.5086C101.031 49.8205 100.902 50.2424 100.902 50.8293V50.9944C100.902 51.5447 101.013 51.985 101.253 52.2785C101.492 52.572 101.787 52.7737 102.229 52.7737Z" fill="white"/>
<path d="M107.076 51.2879H106.468V53.3607H105.639V48.5181H106.468V50.5725H107.021L108.661 48.5181H109.675L107.758 50.8477L109.841 53.3607H108.79L107.076 51.2879Z" fill="white"/>
<path d="M110.67 50.8846C110.67 50.4076 110.762 49.9857 110.947 49.6005C111.131 49.2153 111.389 48.9218 111.721 48.72C112.052 48.5183 112.439 48.4082 112.863 48.4082C113.527 48.4082 114.061 48.6283 114.467 49.0869C114.872 49.5455 115.075 50.1508 115.075 50.9029V50.9579C115.075 51.4349 114.983 51.8568 114.798 52.2236C114.614 52.5905 114.356 52.884 114.024 53.1041C113.693 53.3059 113.306 53.4159 112.863 53.4159C112.2 53.4159 111.665 53.1775 111.26 52.7372C110.854 52.2787 110.652 51.6733 110.652 50.9212V50.8846H110.67ZM111.518 50.9946C111.518 51.5266 111.647 51.9668 111.887 52.297C112.126 52.6272 112.476 52.7923 112.9 52.7923C113.324 52.7923 113.656 52.6272 113.914 52.297C114.172 51.9668 114.282 51.5082 114.282 50.9029C114.282 50.3709 114.153 49.949 113.895 49.6189C113.637 49.2887 113.306 49.1236 112.882 49.1236C112.476 49.1236 112.145 49.2887 111.887 49.6189C111.647 49.9124 111.518 50.3893 111.518 50.9946Z" fill="white"/>
<path d="M118.632 53.4525C117.968 53.4525 117.434 53.2324 117.028 52.8105C116.623 52.3886 116.402 51.8016 116.402 51.0862V50.9395C116.402 50.4626 116.494 50.0223 116.678 49.6555C116.862 49.2702 117.12 48.9767 117.452 48.775C117.784 48.5732 118.153 48.4631 118.521 48.4631C119.148 48.4631 119.645 48.6649 119.996 49.0868C120.346 49.5087 120.53 50.0957 120.53 50.8661V51.2146H117.231C117.249 51.6916 117.379 52.0768 117.655 52.3703C117.931 52.6638 118.263 52.8105 118.687 52.8105C118.982 52.8105 119.221 52.7555 119.424 52.6271C119.627 52.517 119.811 52.3519 119.959 52.1502L120.475 52.5354C120.069 53.1407 119.443 53.4525 118.632 53.4525ZM118.521 49.1052C118.189 49.1052 117.913 49.2336 117.673 49.472C117.434 49.7105 117.305 50.059 117.249 50.4992H119.682V50.4442C119.664 50.0223 119.535 49.6921 119.332 49.472C119.129 49.2519 118.871 49.1052 118.521 49.1052Z" fill="white"/>
<path d="M126.833 48.7933C127.441 48.7933 127.939 48.9951 128.307 49.3987C128.676 49.8022 128.86 50.3342 128.86 51.0129V51.0863C128.86 51.5448 128.768 51.9484 128.602 52.3153C128.418 52.6821 128.178 52.9573 127.847 53.1591C127.515 53.3608 127.128 53.4525 126.704 53.4525C126.059 53.4525 125.524 53.2324 125.119 52.7922C124.713 52.3519 124.511 51.7833 124.511 51.0496V50.646C124.511 49.6371 124.695 48.8117 125.082 48.2247C125.469 47.6377 126.022 47.2525 126.759 47.1241C127.183 47.0507 127.459 46.959 127.607 46.8489C127.754 46.7389 127.828 46.5921 127.828 46.4087H128.51C128.51 46.7756 128.418 47.0691 128.252 47.2892C128.086 47.5093 127.81 47.6377 127.441 47.7294L126.814 47.8762C126.317 47.9862 125.948 48.188 125.709 48.4632C125.469 48.7383 125.303 49.1052 125.229 49.5638C125.672 49.0501 126.206 48.7933 126.833 48.7933ZM126.667 49.472C126.262 49.472 125.93 49.6004 125.69 49.8756C125.451 50.1507 125.322 50.5176 125.322 51.0129V51.0863C125.322 51.5999 125.451 52.0218 125.69 52.3153C125.93 52.6088 126.262 52.7738 126.667 52.7738C127.072 52.7738 127.404 52.6271 127.644 52.3153C127.883 52.0034 128.012 51.5632 128.012 50.9762C128.012 50.5176 127.883 50.1507 127.644 49.8756C127.404 49.6004 127.091 49.472 126.667 49.472Z" fill="white"/>
<path d="M131.09 50.5727H132.251C132.307 49.9307 132.546 49.4171 132.952 49.0135C133.357 48.6099 133.855 48.4265 134.463 48.4265C135.089 48.4265 135.624 48.6466 136.029 49.0685C136.435 49.4904 136.656 50.0591 136.693 50.7378V50.9946C136.693 51.4715 136.601 51.8934 136.416 52.2786C136.232 52.6638 135.974 52.9573 135.642 53.1591C135.311 53.3609 134.924 53.4709 134.481 53.4709C133.855 53.4709 133.339 53.2692 132.952 52.8656C132.546 52.4621 132.325 51.9301 132.288 51.2697H131.127V53.3792H130.298V48.5366H131.127V50.5727H131.09ZM133.081 50.9946C133.081 51.5265 133.21 51.9668 133.449 52.297C133.689 52.6271 134.039 52.7922 134.463 52.7922C134.887 52.7922 135.218 52.6271 135.476 52.297C135.716 51.9668 135.845 51.5082 135.845 50.9212C135.845 50.3893 135.716 49.9674 135.458 49.6372C135.2 49.307 134.868 49.1419 134.444 49.1419C134.039 49.1419 133.689 49.307 133.449 49.6372C133.191 49.9123 133.081 50.3893 133.081 50.9946Z" fill="white"/>
<path d="M142.258 50.9946C142.258 51.7283 142.093 52.3337 141.742 52.7739C141.411 53.2325 140.95 53.4526 140.36 53.4526C139.77 53.4526 139.31 53.2692 138.96 52.9023V55.2319H138.13V48.5182H138.886L138.923 49.0502C139.254 48.6283 139.734 48.4265 140.342 48.4265C140.932 48.4265 141.392 48.6466 141.724 49.0869C142.056 49.5271 142.24 50.1324 142.24 50.9212V50.9946H142.258ZM141.429 50.9029C141.429 50.3526 141.319 49.9307 141.079 49.6005C140.839 49.2887 140.526 49.1236 140.121 49.1236C139.623 49.1236 139.236 49.3437 138.978 49.7839V52.0952C139.236 52.5354 139.605 52.7555 140.121 52.7555C140.526 52.7555 140.839 52.6088 141.079 52.2786C141.319 51.9484 141.429 51.5082 141.429 50.9029Z" fill="white"/>
<path d="M143.567 50.8846C143.567 50.4076 143.659 49.9857 143.843 49.6005C144.028 49.2153 144.286 48.9218 144.618 48.72C144.949 48.5183 145.336 48.4082 145.76 48.4082C146.424 48.4082 146.958 48.6283 147.364 49.0869C147.769 49.5455 147.972 50.1508 147.972 50.9029V50.9579C147.972 51.4349 147.88 51.8568 147.695 52.2236C147.511 52.5905 147.253 52.884 146.921 53.1041C146.589 53.3059 146.202 53.4159 145.76 53.4159C145.097 53.4159 144.562 53.1775 144.157 52.7372C143.751 52.2787 143.549 51.6733 143.549 50.9212V50.8846H143.567ZM144.396 50.9946C144.396 51.5266 144.525 51.9668 144.765 52.297C145.005 52.6272 145.355 52.7923 145.779 52.7923C146.202 52.7923 146.534 52.6272 146.792 52.297C147.05 51.9668 147.161 51.5082 147.161 50.9029C147.161 50.3709 147.032 49.949 146.774 49.6189C146.516 49.2887 146.184 49.1236 145.76 49.1236C145.355 49.1236 145.023 49.2887 144.765 49.6189C144.525 49.9124 144.396 50.3893 144.396 50.9946Z" fill="white"/>
<path d="M65.7018 16.2523C65.112 16.2523 64.5223 16.179 63.8957 16.0506C63.2691 15.9222 62.6793 15.6654 62.0896 15.2802C61.4998 14.8949 60.9654 14.363 60.4678 13.6476L61.205 13.0423C61.6841 13.721 62.2739 14.2162 62.9558 14.5464C63.6377 14.8766 64.3749 15.0417 65.1489 15.0417C65.6465 15.0417 66.1257 14.95 66.568 14.7665C67.0103 14.5831 67.3789 14.308 67.6553 13.9227C67.9318 13.5375 68.0792 13.0606 68.0792 12.4736C68.0792 11.96 67.9686 11.5381 67.7659 11.1896C67.5448 10.8227 67.2683 10.5659 66.8997 10.3825C66.5311 10.199 66.1072 10.1073 65.6465 10.1073H63.7114V9.04341H65.2779C65.8124 9.04341 66.2547 8.93335 66.568 8.73157C66.8997 8.52979 67.1393 8.25464 67.2683 7.90612C67.4157 7.55759 67.4895 7.19073 67.4895 6.76883C67.4895 5.99841 67.3052 5.44811 66.955 5.09958C66.5864 4.75106 66.0888 4.56763 65.4622 4.56763C64.6329 4.56763 63.9878 4.82443 63.5087 5.3197C63.0295 5.81497 62.6609 6.5854 62.4029 7.59428H61.4445V3.61377H62.6609L62.5872 4.45757C62.9926 4.2191 63.3612 4.03567 63.7114 3.88892C64.0616 3.74217 64.3933 3.65046 64.725 3.57708C65.0567 3.52205 65.4253 3.48537 65.8492 3.48537C66.6601 3.46702 67.3605 3.59543 67.9502 3.85223C68.54 4.10904 68.9823 4.45757 69.2956 4.91615C69.6089 5.37473 69.7563 5.88835 69.7563 6.49368C69.7563 7.17238 69.5352 7.77771 69.0744 8.29133C68.6137 8.80494 67.9686 9.17181 67.1209 9.39193V9.44696C68.2266 9.57536 69.0744 9.90554 69.6457 10.4558C70.2171 10.9878 70.5119 11.6849 70.5119 12.5103C70.5119 13.0973 70.3829 13.6292 70.1065 14.1062C69.83 14.5831 69.4614 14.9683 69.0007 15.2985C68.54 15.6287 68.0239 15.8671 67.4526 16.0322C66.8813 16.1973 66.2731 16.2523 65.7018 16.2523Z" fill="white"/>
<path d="M71.7468 15.9586V14.9681C72.0786 14.9681 72.3366 14.8764 72.5393 14.6929C72.742 14.5095 72.9079 14.2527 73.0369 13.9592C73.1659 13.6474 73.2949 13.2988 73.4423 12.932L76.9256 3.4668H77.8655L81.662 13.0971C81.7357 13.2988 81.8278 13.574 81.9384 13.9409C82.049 14.3077 82.1227 14.6196 82.1227 14.8764C82.3254 14.858 82.5097 14.858 82.694 14.8397C82.8783 14.8213 83.0442 14.8213 83.1916 14.8213V15.9586H78.7317V15.0048C79.1003 15.0048 79.3398 14.9314 79.4688 14.7847C79.5979 14.6379 79.6531 14.4361 79.6347 14.1977C79.6163 13.9592 79.561 13.7024 79.4504 13.4456L79.0081 12.2533L74.9536 12.3266L74.5666 13.5006C74.4928 13.7024 74.4191 13.9225 74.327 14.1793C74.2348 14.4361 74.1427 14.6563 74.0505 14.858C74.2533 14.8397 74.4928 14.8397 74.7509 14.8213C75.0089 14.803 75.2116 14.803 75.359 14.803V15.9586H71.7468ZM75.3406 11.2077H78.6395L77.6996 8.63963C77.5522 8.25442 77.4232 7.85086 77.3126 7.44731C77.1836 7.04375 77.0914 6.67689 76.9993 6.34671H76.9624C76.8887 6.58517 76.815 6.87866 76.7044 7.24553C76.6122 7.6124 76.4648 8.03429 76.2989 8.51122L75.3406 11.2077Z" fill="white"/>
<path d="M84.7949 15.9588V15.005C85.1267 14.9866 85.3662 14.9316 85.5505 14.8399C85.7348 14.7482 85.8454 14.5647 85.9191 14.3079C85.9928 14.0511 86.0297 13.7026 86.0297 13.2624V6.32857C86.0297 6.03508 86.0297 5.75992 86.0481 5.48477C86.0666 5.20962 86.085 5.00785 86.085 4.8611C85.8823 4.87944 85.6611 4.87944 85.4031 4.87944C85.1451 4.87944 84.9424 4.89779 84.7949 4.89779V3.7605H96.6636V4.71435C96.3503 4.7327 96.0923 4.78773 95.9264 4.87944C95.7606 4.97116 95.6131 5.15459 95.5578 5.39306C95.5025 5.63152 95.4473 5.98005 95.4473 6.43863V13.3541C95.4473 13.6659 95.4473 13.9594 95.4288 14.2162C95.4104 14.4914 95.392 14.6931 95.3735 14.8399C95.5763 14.8215 95.7974 14.8215 96.0554 14.8032C96.3134 14.7849 96.5162 14.7849 96.6636 14.7849V15.9588H91.9825V15.005C92.3142 14.9866 92.5538 14.9316 92.7381 14.8399C92.9224 14.7482 93.0514 14.5647 93.1067 14.3079C93.1804 14.0511 93.2173 13.7026 93.2173 13.2624V4.8611L89.4208 4.91613C89.1259 4.93447 88.8863 4.97116 88.7204 5.06288C88.5546 5.13625 88.4256 5.283 88.3334 5.50312C88.2597 5.70489 88.2044 6.01673 88.2044 6.42029V13.3724C88.2044 13.6843 88.2044 13.9778 88.186 14.2346C88.1675 14.5097 88.1491 14.7115 88.1307 14.8582C88.3334 14.8399 88.5546 14.8399 88.8126 14.8215C89.0706 14.8032 89.2733 14.8032 89.4208 14.8032V15.9588H84.7949Z" fill="white"/>
<path d="M104.902 16.2523C103.796 16.2523 102.856 16.0689 102.064 15.702C101.29 15.3352 100.644 14.8399 100.165 14.2162C99.6861 13.5925 99.336 12.9138 99.0964 12.1434C98.8752 11.3913 98.7646 10.6393 98.7646 9.86884C98.7646 9.13511 98.8937 8.40137 99.1332 7.6493C99.3728 6.89722 99.7599 6.21851 100.257 5.5765C100.755 4.93448 101.4 4.43921 102.174 4.054C102.948 3.66879 103.851 3.48535 104.883 3.48535C105.952 3.48535 106.874 3.66879 107.648 4.054C108.422 4.43921 109.067 4.95282 109.564 5.5765C110.062 6.21851 110.431 6.89722 110.67 7.6493C110.91 8.40137 111.02 9.13511 111.02 9.86884C111.02 10.5842 110.891 11.318 110.652 12.07C110.412 12.8221 110.025 13.5008 109.528 14.1428C109.012 14.7665 108.385 15.2801 107.611 15.6837C106.837 16.0872 105.934 16.2523 104.902 16.2523ZM105.031 15.1701C105.676 15.1701 106.229 15.0233 106.689 14.7115C107.132 14.3997 107.5 14.0144 107.777 13.5192C108.053 13.0239 108.256 12.4919 108.403 11.905C108.532 11.318 108.606 10.7493 108.606 10.1623C108.606 9.39192 108.532 8.65818 108.366 7.97948C108.201 7.30077 107.961 6.71378 107.648 6.20017C107.334 5.68656 106.929 5.283 106.431 4.98951C105.934 4.69601 105.381 4.54927 104.736 4.56761C104.091 4.58595 103.556 4.7327 103.096 5.04454C102.653 5.35637 102.285 5.75993 101.99 6.2552C101.695 6.75047 101.492 7.28243 101.363 7.86942C101.234 8.4564 101.179 9.04339 101.179 9.61204C101.179 10.199 101.253 10.8044 101.382 11.4464C101.529 12.0884 101.75 12.6937 102.045 13.2624C102.34 13.831 102.745 14.2896 103.243 14.6381C103.741 14.9866 104.33 15.1701 105.031 15.1701Z" fill="white"/>
<path d="M114.596 16.2523C114.043 16.2523 113.582 16.1239 113.213 15.8671C112.845 15.6103 112.679 15.2618 112.679 14.8215C112.679 14.4547 112.79 14.1428 112.992 13.886C113.195 13.6292 113.508 13.5008 113.932 13.5008C114.301 13.4825 114.577 13.5925 114.743 13.7943C114.909 13.9961 115.001 14.2346 115.001 14.5097C115.001 14.7115 114.964 14.8766 114.854 15.005C114.927 15.06 115.02 15.0784 115.112 15.0784C115.278 15.0784 115.499 14.9316 115.738 14.6198C115.978 14.3263 116.199 13.8493 116.439 13.189C116.66 12.5286 116.844 11.7032 117.01 10.7126C117.176 9.70375 117.268 8.49309 117.286 7.09899L117.323 4.87944H116.918L115.425 4.93447V3.7605H124.75V4.71435C124.437 4.7327 124.179 4.78773 124.013 4.87944C123.847 4.97116 123.7 5.15459 123.645 5.39306C123.589 5.63152 123.534 5.98005 123.534 6.43863V13.3541C123.534 13.6659 123.534 13.9594 123.516 14.2162C123.497 14.5097 123.479 14.7115 123.46 14.8582C123.663 14.8399 123.903 14.8399 124.161 14.8215C124.419 14.8032 124.621 14.8032 124.75 14.8032V15.9588H120.088V15.005C120.419 14.9866 120.659 14.9316 120.843 14.8399C121.028 14.7482 121.138 14.5647 121.212 14.3079C121.286 14.0511 121.322 13.7026 121.322 13.2624V4.8611L119.572 4.89779C119.166 4.91613 118.871 5.00785 118.724 5.17294C118.558 5.35637 118.484 5.63152 118.466 6.05342C118.447 7.39248 118.374 8.60315 118.245 9.68541C118.116 10.7677 117.95 11.7215 117.729 12.547C117.508 13.3724 117.231 14.0511 116.918 14.6014C116.604 15.1517 116.254 15.5553 115.867 15.8304C115.48 16.1056 115.056 16.2523 114.596 16.2523Z" fill="white"/>
<path d="M131.938 4.71435C131.625 4.7327 131.367 4.78773 131.201 4.87944C131.035 4.97116 130.887 5.15459 130.832 5.39306C130.777 5.63152 130.722 5.98005 130.722 6.43863V8.85995L131.827 8.82327C132.859 8.78658 133.689 8.85995 134.352 9.04339C134.997 9.22682 135.513 9.50197 135.9 9.83215C136.269 10.1807 136.527 10.5659 136.674 11.0061C136.822 11.4464 136.896 11.905 136.896 12.3819C136.896 13.1523 136.711 13.8127 136.361 14.3446C135.992 14.8766 135.495 15.2618 134.868 15.5369C134.223 15.8121 133.504 15.9405 132.712 15.9405H127.312V15.005C127.625 14.9866 127.865 14.9316 128.049 14.8399C128.215 14.7482 128.344 14.5647 128.418 14.3263C128.492 14.0878 128.528 13.7393 128.528 13.2807V6.32857C128.528 6.03508 128.528 5.75993 128.547 5.48477C128.565 5.20962 128.584 5.00785 128.584 4.8611C128.381 4.87944 128.16 4.87944 127.902 4.87944C127.644 4.87944 127.441 4.89779 127.294 4.89779V3.7605H131.956V4.71435H131.938ZM130.703 13.4275C130.703 13.7393 130.703 14.0328 130.685 14.2896C130.666 14.5464 130.648 14.7482 130.629 14.8949C130.777 14.9133 130.943 14.9133 131.146 14.9133C131.33 14.9133 131.514 14.9133 131.68 14.9133C131.846 14.9133 131.993 14.9133 132.104 14.9133C132.878 14.8949 133.468 14.6565 133.855 14.2162C134.26 13.776 134.463 13.1523 134.463 12.3452C134.463 11.7215 134.352 11.2262 134.131 10.8777C133.91 10.5292 133.615 10.2724 133.228 10.1256C132.841 9.9789 132.417 9.90553 131.938 9.90553C131.717 9.90553 131.496 9.90553 131.293 9.90553C131.09 9.90553 130.887 9.92387 130.685 9.94221V13.4275H130.703Z" fill="white"/>
<path d="M148.211 7.66764C148.064 6.65875 147.732 5.88833 147.179 5.35638C146.626 4.82442 145.926 4.56761 145.041 4.56761C144.415 4.56761 143.862 4.69601 143.383 4.97116C142.904 5.24631 142.498 5.61318 142.148 6.09011C141.816 6.56704 141.558 7.09899 141.392 7.72267C141.226 8.34634 141.134 9.0067 141.134 9.7221C141.134 10.7493 141.3 11.6665 141.632 12.4553C141.964 13.244 142.424 13.8677 143.033 14.3263C143.641 14.7849 144.341 15.005 145.152 15.005C145.908 15.005 146.645 14.8216 147.363 14.4547C148.101 14.0878 148.69 13.5742 149.17 12.8955L149.888 13.5375C149.335 14.2896 148.764 14.8399 148.138 15.2435C147.511 15.6287 146.921 15.9038 146.331 16.0322C145.742 16.1606 145.207 16.234 144.728 16.234C143.825 16.234 143.014 16.0689 142.277 15.7571C141.54 15.4452 140.913 14.9866 140.379 14.4363C139.844 13.8677 139.439 13.2073 139.144 12.4736C138.849 11.7215 138.72 10.9144 138.72 10.0339C138.72 9.22682 138.849 8.43806 139.089 7.66764C139.347 6.89722 139.715 6.18183 140.231 5.55815C140.747 4.93448 141.374 4.42086 142.148 4.054C142.922 3.68713 143.807 3.48535 144.82 3.48535C145.336 3.48535 145.871 3.55873 146.424 3.72382C146.976 3.88891 147.511 4.10903 147.99 4.42086L147.916 3.61376H149.133V7.66764H148.211Z" fill="white"/>
<path d="M151.787 15.9588V15.005C152.118 14.9866 152.358 14.9316 152.542 14.8399C152.727 14.7482 152.837 14.5647 152.911 14.3079C152.985 14.0511 153.021 13.7026 153.021 13.2624V6.32857C153.021 6.03508 153.021 5.75992 153.04 5.48477C153.058 5.20962 153.077 5.00785 153.077 4.8611C152.874 4.87944 152.653 4.87944 152.395 4.87944C152.137 4.87944 151.934 4.89779 151.787 4.89779V3.7605H156.449V4.71435C156.136 4.7327 155.878 4.78773 155.712 4.87944C155.546 4.97116 155.399 5.15459 155.344 5.39306C155.288 5.63152 155.233 5.98005 155.233 6.43863V9.17179H156.505L158.126 6.512C158.292 6.20017 158.495 5.86998 158.716 5.55815C158.937 5.22797 159.14 5.00785 159.324 4.8611C159.14 4.87944 158.937 4.87944 158.753 4.87944C158.569 4.87944 158.384 4.89779 158.237 4.89779V3.7605H162.347V4.71435C162.015 4.7327 161.702 4.78773 161.37 4.89779C161.038 5.00785 160.725 5.17294 160.393 5.44809C160.062 5.72324 159.73 6.14514 159.38 6.69544L157.684 9.39191C157.961 9.557 158.182 9.74043 158.384 9.92387C158.587 10.1073 158.753 10.3274 158.919 10.5475L160.78 13.1156C161.075 13.5192 161.37 13.8677 161.628 14.1428C161.886 14.418 162.144 14.6381 162.402 14.7665C162.66 14.9133 162.9 14.9866 163.158 14.9866V15.9588H160.651C160.522 15.9588 160.375 15.8488 160.154 15.6653C159.951 15.4819 159.73 15.2434 159.509 14.9683C159.287 14.6931 159.066 14.4363 158.882 14.1979L157.021 11.5931C156.836 11.3547 156.652 11.1162 156.468 10.8777C156.265 10.6393 156.081 10.4558 155.915 10.3274L155.215 10.3458V13.3724C155.215 13.6843 155.215 13.9778 155.196 14.2346C155.178 14.5097 155.159 14.7115 155.141 14.8582C155.344 14.8399 155.565 14.8399 155.823 14.8215C156.081 14.8032 156.283 14.8032 156.431 14.8032V15.9588H151.787Z" fill="white"/>
<path d="M169.442 4.71435C169.129 4.7327 168.871 4.78773 168.705 4.87944C168.539 4.97116 168.392 5.15459 168.336 5.39306C168.281 5.63152 168.226 5.98005 168.226 6.43863V13.3541C168.226 13.6659 168.226 13.9594 168.207 14.2162C168.189 14.4914 168.171 14.6931 168.152 14.8399C168.355 14.8215 168.576 14.8215 168.834 14.8032C169.092 14.7849 169.295 14.7849 169.442 14.7849V15.9588H164.78V15.005C165.111 14.9866 165.351 14.9316 165.535 14.8399C165.719 14.7482 165.83 14.5647 165.904 14.3079C165.977 14.0511 166.014 13.7026 166.014 13.2624V6.32857C166.014 6.03508 166.014 5.75992 166.033 5.48477C166.051 5.20962 166.07 5.00785 166.07 4.8611C165.867 4.87944 165.646 4.87944 165.388 4.89779C165.13 4.89779 164.927 4.91613 164.78 4.91613V3.7605H169.442V4.71435ZM174.732 4.40252L175.469 5.11791L166.973 15.3168L166.199 14.5647L174.732 4.40252ZM177.146 4.71435C176.833 4.7327 176.575 4.78773 176.409 4.87944C176.243 4.97116 176.095 5.15459 176.022 5.39306C175.948 5.63152 175.911 5.98005 175.911 6.43863V13.3541C175.911 13.6659 175.911 13.9594 175.911 14.2162C175.911 14.4914 175.893 14.6931 175.874 14.8399C176.058 14.8215 176.28 14.8215 176.556 14.8032C176.814 14.7849 177.017 14.7849 177.183 14.7849V15.9588H172.502V15.005C172.833 14.9866 173.073 14.9316 173.257 14.8399C173.423 14.7482 173.552 14.5647 173.626 14.3079C173.699 14.0511 173.736 13.7026 173.736 13.2624V6.32857C173.736 6.03508 173.736 5.75992 173.755 5.48477C173.773 5.20962 173.773 5.00785 173.792 4.8611C173.607 4.87944 173.386 4.87944 173.128 4.87944C172.87 4.87944 172.667 4.89779 172.502 4.89779V3.7605H177.183V4.71435H177.146Z" fill="white"/>
<path d="M184.296 4.71427C183.983 4.73261 183.725 4.78764 183.559 4.87936C183.393 4.97107 183.246 5.15451 183.191 5.39297C183.135 5.63143 183.08 5.97996 183.08 6.43854V13.354C183.08 13.6658 183.08 13.9593 183.062 14.2161C183.043 14.4913 183.025 14.6931 183.006 14.8398C183.209 14.8215 183.43 14.8215 183.688 14.8031C183.946 14.7848 184.149 14.7848 184.296 14.7848V15.9587H179.634V15.0049C179.966 14.9866 180.205 14.9315 180.389 14.8398C180.574 14.7481 180.684 14.5647 180.758 14.3078C180.832 14.051 180.869 13.7025 180.869 13.2623V6.32848C180.869 6.03499 180.869 5.75984 180.887 5.48469C180.905 5.20954 180.924 5.00776 180.924 4.86101C180.721 4.87936 180.5 4.87936 180.242 4.87936C179.984 4.87936 179.781 4.8977 179.634 4.8977V3.76041H184.296V4.71427ZM189.604 4.40243L190.341 5.11782L181.827 15.3351L181.053 14.583L189.604 4.40243ZM183.633 2.1412e-05C183.891 -0.018322 184.094 0.0367081 184.223 0.165112C184.352 0.293515 184.462 0.403576 184.518 0.550322C184.573 0.697069 184.61 0.80713 184.61 0.898846C184.61 1.00891 184.591 1.11897 184.573 1.24737C184.555 1.37577 184.499 1.48583 184.444 1.59589C184.61 1.7243 184.813 1.81601 185.052 1.88939C185.292 1.94442 185.55 1.9811 185.826 1.9811C186.103 1.9811 186.361 1.94442 186.619 1.88939C186.858 1.81601 187.061 1.7243 187.208 1.59589C187.098 1.35743 187.042 1.13731 187.042 0.898846C187.042 0.80713 187.061 0.678726 187.116 0.550322C187.172 0.403576 187.264 0.275172 187.411 0.165112C187.559 0.0550515 187.724 -0.018322 187.982 2.1412e-05C188.277 2.1412e-05 188.517 0.110082 188.664 0.311859C188.812 0.513636 188.885 0.752099 188.885 1.02725C188.885 1.39412 188.738 1.7243 188.462 1.9811C188.167 2.23791 187.798 2.43969 187.337 2.56809C186.877 2.6965 186.361 2.76987 185.808 2.76987C185.255 2.76987 184.757 2.6965 184.278 2.56809C183.817 2.43969 183.43 2.23791 183.154 1.9811C182.877 1.7243 182.73 1.41246 182.73 1.02725C182.73 0.752099 182.804 0.513636 182.951 0.311859C183.099 0.110082 183.32 2.1412e-05 183.633 2.1412e-05ZM192 4.71427C191.687 4.73261 191.429 4.78764 191.263 4.87936C191.097 4.97107 190.95 5.15451 190.876 5.39297C190.802 5.63143 190.765 5.97996 190.765 6.43854V13.354C190.765 13.6658 190.765 13.9593 190.765 14.2161C190.765 14.4913 190.747 14.6931 190.728 14.8398C190.913 14.8215 191.134 14.8215 191.41 14.8031C191.668 14.7848 191.871 14.7848 192.037 14.7848V15.9587H187.356V15.0049C187.688 14.9866 187.927 14.9315 188.111 14.8398C188.277 14.7481 188.406 14.5647 188.48 14.3078C188.554 14.051 188.591 13.7025 188.591 13.2623V6.32848C188.591 6.03499 188.591 5.75984 188.609 5.48469C188.627 5.20954 188.627 5.00776 188.646 4.86101C188.462 4.87936 188.24 4.87936 187.982 4.87936C187.724 4.87936 187.522 4.8977 187.356 4.8977V3.76041H192.037V4.71427H192Z" fill="white"/>
<path d="M65.4623 25.8092C65.149 25.8275 64.8909 25.8826 64.7251 25.9743C64.5592 26.066 64.4118 26.2494 64.3565 26.4879C64.3012 26.7263 64.2459 27.0749 64.2459 27.5335V34.4489C64.2459 34.7607 64.2459 35.0542 64.2275 35.311C64.209 35.5862 64.1906 35.788 64.1722 35.9347C64.3749 35.9164 64.5961 35.9164 64.8541 35.898C65.1121 35.8797 65.3148 35.8797 65.4623 35.8797V37.0353H60.7996V36.0815C61.1313 36.0631 61.3709 36.0081 61.5552 35.9164C61.7395 35.8247 61.85 35.6412 61.9238 35.3844C61.9975 35.1276 62.0343 34.7791 62.0343 34.3388V27.3867C62.0343 27.0932 62.0343 26.8181 62.0528 26.5429C62.0712 26.2678 62.0896 26.066 62.0896 25.9192C61.8869 25.9376 61.6658 25.9376 61.4077 25.9376C61.1497 25.9376 60.947 25.9559 60.7996 25.9559V24.8003H65.4623V25.8092ZM70.7516 25.4973L71.4888 26.2127L62.9743 36.43L62.2002 35.6779L70.7516 25.4973ZM73.1658 25.8092C72.8525 25.8275 72.5945 25.8826 72.4287 25.9743C72.2628 26.066 72.1154 26.2494 72.0416 26.4879C71.9679 26.7263 71.9311 27.0749 71.9311 27.5335V34.4489C71.9311 34.7607 71.9311 35.0542 71.9311 35.311C71.9311 35.5862 71.9126 35.788 71.8942 35.9347C72.0785 35.9164 72.2997 35.9164 72.5761 35.898C72.8341 35.8797 73.0368 35.8797 73.2027 35.8797V37.0353H68.5216V36.0815C68.8533 36.0631 69.0929 36.0081 69.2772 35.9164C69.4431 35.8247 69.5721 35.6412 69.6458 35.3844C69.7195 35.1276 69.7564 34.7791 69.7564 34.3388V27.3867C69.7564 27.0932 69.7564 26.8181 69.7748 26.5429C69.7932 26.2678 69.7932 26.066 69.8117 25.9192C69.6274 25.9376 69.4062 25.9376 69.1482 25.9376C68.8902 25.9376 68.6874 25.9559 68.5216 25.9559V24.8003H73.2027V25.8092H73.1658Z" fill="white"/>
<path d="M80.9614 37.0536V36.0998C81.2932 36.0814 81.5327 36.0264 81.717 35.9347C81.9013 35.843 82.0119 35.6595 82.0856 35.4027C82.1594 35.1459 82.1962 34.7974 82.1962 34.3572V27.405C82.1962 27.1115 82.1962 26.8364 82.2146 26.5612C82.2331 26.2861 82.2515 26.0843 82.2515 25.9375C82.0488 25.9559 81.8276 25.9559 81.5696 25.9559C81.3116 25.9559 81.1089 25.9742 80.9614 25.9742V24.8186H92.8301V25.7725C92.5168 25.7908 92.2588 25.8458 92.0929 25.9375C91.9271 26.0293 91.7796 26.2127 91.7243 26.4512C91.669 26.6896 91.6138 27.0382 91.6138 27.4967V34.4122C91.6138 34.724 91.6138 35.0175 91.5953 35.2743C91.5769 35.5495 91.5585 35.7512 91.54 35.898C91.7428 35.8797 91.9639 35.8797 92.2219 35.8613C92.48 35.843 92.6827 35.843 92.8301 35.843V36.9986H88.149V36.0447C88.4807 36.0264 88.7203 35.9714 88.9046 35.8797C89.0889 35.7879 89.2179 35.6045 89.2732 35.3477C89.3469 35.0909 89.3838 34.7424 89.3838 34.3021V25.8825L85.5873 25.9375C85.2924 25.9559 85.0528 25.9926 84.8869 26.0843C84.7211 26.1577 84.5921 26.3044 84.4999 26.5245C84.4262 26.7263 84.3709 27.0382 84.3709 27.4417V34.3938C84.3709 34.7057 84.3709 34.9992 84.3525 35.256C84.3341 35.5311 84.3156 35.7329 84.2972 35.8797C84.4999 35.8613 84.7211 35.8613 84.9791 35.843C85.2371 35.8246 85.4398 35.8246 85.5873 35.8246V36.9803H80.9614V37.0536Z" fill="white"/>
<path d="M94.4705 37.0536V36.0631C94.8022 36.0631 95.0602 35.9713 95.2629 35.7879C95.4657 35.6045 95.6315 35.3477 95.7605 35.0542C95.8895 34.7423 96.0186 34.3938 96.166 34.0269L99.6492 24.5618H100.589L104.386 34.192C104.459 34.3938 104.551 34.669 104.662 35.0358C104.773 35.4027 104.846 35.7145 104.846 35.9713C105.049 35.953 105.233 35.953 105.418 35.9347C105.602 35.9163 105.768 35.9163 105.915 35.9163V37.0719H101.455V36.1181C101.824 36.1181 102.063 36.0447 102.192 35.898C102.321 35.7512 102.377 35.5494 102.358 35.311C102.34 35.0725 102.285 34.8157 102.174 34.5589L101.732 33.3666L97.6772 33.4216L97.2902 34.5956C97.2165 34.7974 97.1428 35.0175 97.0506 35.2743C96.9585 35.5311 96.8663 35.7512 96.7742 35.953C96.9769 35.9347 97.2165 35.9347 97.4745 35.9163C97.7325 35.898 97.9352 35.898 98.0827 35.898V37.0903H94.4705V37.0536ZM98.0458 32.3027H101.345L100.405 29.7346C100.257 29.3494 100.128 28.9458 100.018 28.5423C99.9072 28.1387 99.7966 27.7719 99.7045 27.4417H99.6676C99.5939 27.6801 99.5202 27.9736 99.4096 28.3405C99.3175 28.7074 99.17 29.1293 99.0042 29.6062L98.0458 32.3027Z" fill="white"/>
<path d="M107.5 36.0997C107.832 36.0813 108.072 36.0263 108.256 35.9346C108.44 35.8429 108.551 35.6594 108.624 35.4026C108.698 35.1458 108.735 34.7973 108.735 34.357V27.4049C108.735 27.1114 108.735 26.8363 108.753 26.5611C108.772 26.286 108.79 26.0842 108.79 25.9374C108.588 25.9558 108.366 25.9558 108.108 25.9558C107.85 25.9558 107.648 25.9741 107.5 25.9741V24.8185C108.256 24.8002 109.03 24.8002 109.786 24.8002C110.56 24.8002 111.334 24.8002 112.089 24.7818C113.158 24.7635 114.061 24.9102 114.835 25.167C115.609 25.4238 116.199 25.8457 116.604 26.396C117.01 26.9463 117.213 27.6617 117.213 28.5239C117.213 28.9824 117.121 29.441 116.918 29.918C116.733 30.3765 116.42 30.7984 116.015 31.1836C115.591 31.5689 115.056 31.8807 114.393 32.1375C113.729 32.3943 112.919 32.5227 111.96 32.5411C111.776 32.5411 111.592 32.5411 111.426 32.5411C111.26 32.5411 111.076 32.5411 110.91 32.5227V34.3937C110.91 34.7239 110.91 35.0174 110.891 35.2742C110.873 35.5494 110.854 35.7511 110.836 35.8979C110.983 35.8795 111.149 35.8795 111.352 35.8795C111.536 35.8795 111.721 35.8612 111.923 35.8612C112.126 35.8612 112.274 35.8612 112.366 35.8612V37.0168H107.482V36.0997H107.5ZM110.947 31.4771C111.094 31.4955 111.241 31.4955 111.389 31.5138C111.536 31.5322 111.684 31.5322 111.85 31.5322C112.495 31.5322 113.048 31.4221 113.508 31.1836C113.951 30.9452 114.301 30.615 114.54 30.1748C114.78 29.7345 114.891 29.2026 114.891 28.5789C114.891 28.0102 114.817 27.5517 114.651 27.1848C114.485 26.8179 114.264 26.5428 114.006 26.3593C113.729 26.1759 113.435 26.0292 113.121 25.9741C112.79 25.9008 112.476 25.8641 112.145 25.8641C111.85 25.8641 111.61 25.9191 111.444 26.0108C111.278 26.1025 111.149 26.2676 111.094 26.5061C111.039 26.7446 111.002 27.0747 111.002 27.4783V31.4771H110.947Z" fill="white"/>
<path d="M128.289 28.7074C128.289 28.0653 128.215 27.515 128.049 27.0931C127.883 26.6713 127.644 26.3594 127.331 26.1393C127.017 25.9375 126.612 25.8275 126.114 25.8458H125.045V34.4488C125.045 34.7607 125.045 35.0542 125.027 35.311C125.008 35.5678 124.99 35.7879 124.972 35.9347C125.193 35.9163 125.451 35.9163 125.727 35.898C126.022 35.8796 126.225 35.8796 126.391 35.8796V37.0353H121.617V36.0814C121.949 36.0631 122.189 36.008 122.373 35.9163C122.539 35.8062 122.668 35.6412 122.742 35.3844C122.815 35.1459 122.852 34.7974 122.852 34.3571L122.871 25.8458H121.728C121.046 25.8641 120.512 26.0843 120.161 26.5428C119.811 27.0014 119.627 27.7168 119.627 28.689H118.65L118.742 24.8369H129.229L129.339 28.689H128.289V28.7074Z" fill="white"/>
<path d="M131.238 37.0537V36.0998C131.569 36.0815 131.809 36.0265 131.993 35.9347C132.177 35.843 132.288 35.6596 132.362 35.4028C132.435 35.146 132.472 34.7975 132.472 34.3572V27.4051C132.472 27.1116 132.472 26.8364 132.491 26.5613C132.509 26.2861 132.528 26.0844 132.528 25.9376C132.325 25.956 132.104 25.956 131.846 25.956C131.588 25.956 131.385 25.9743 131.238 25.9743V24.8187H135.9V25.7725C135.587 25.7909 135.329 25.8459 135.163 25.9376C134.997 26.0293 134.85 26.2128 134.794 26.4512C134.739 26.6897 134.684 27.0382 134.684 27.4968V30.2666H139.973V27.3684C139.973 27.0749 139.973 26.7998 139.992 26.5246C140.01 26.2495 140.028 26.0477 140.047 25.9009C139.844 25.9193 139.623 25.9193 139.365 25.9193C139.107 25.9193 138.904 25.9376 138.757 25.9376V24.782H143.42V25.7358C143.106 25.7542 142.848 25.8092 142.682 25.9009C142.516 25.9926 142.369 26.1761 142.314 26.4145C142.258 26.653 142.203 27.0015 142.203 27.4601V34.3756C142.203 34.6874 142.203 34.9809 142.185 35.2377C142.166 35.4945 142.148 35.7146 142.129 35.8614C142.332 35.843 142.553 35.843 142.83 35.8247C143.088 35.8063 143.291 35.8063 143.438 35.8063V36.962H138.775V36.0081C139.107 35.9898 139.347 35.9347 139.531 35.843C139.715 35.7513 139.826 35.5679 139.899 35.3111C139.973 35.0543 140.01 34.7057 140.01 34.2655V31.3122L134.721 31.3856V34.3572C134.721 34.6691 134.721 34.9626 134.702 35.2194C134.684 35.4945 134.665 35.6963 134.647 35.843C134.85 35.8247 135.071 35.8247 135.329 35.8063C135.587 35.788 135.79 35.788 135.937 35.788V36.9436H131.238V37.0537Z" fill="white"/>
<path d="M151.897 32.7613C151.897 32.266 151.824 31.8991 151.676 31.679C151.529 31.4589 151.326 31.3305 151.049 31.2755C150.773 31.2204 150.441 31.2204 150.054 31.2204L149.335 31.2571V34.4856C149.335 34.7974 149.335 35.0909 149.317 35.3477C149.299 35.6045 149.28 35.8063 149.262 35.9714L151.934 35.953C152.34 35.953 152.708 35.8797 153.058 35.7146C153.39 35.5678 153.666 35.2927 153.888 34.9075C154.09 34.5222 154.201 34.0086 154.201 33.3666H155.159L155.067 37.0536H145.889V36.0998C146.221 36.0814 146.46 36.0264 146.645 35.9347C146.829 35.843 146.94 35.6595 147.013 35.4027C147.087 35.1459 147.124 34.7974 147.124 34.3572V27.405C147.124 27.1115 147.124 26.8364 147.142 26.5612C147.161 26.2861 147.179 26.0843 147.179 25.9375C146.977 25.9559 146.755 25.9559 146.497 25.9559C146.239 25.9559 146.037 25.9742 145.889 25.9742V24.8186H154.514L154.625 28.1021H153.666C153.666 27.4417 153.556 26.9464 153.335 26.6163C153.114 26.2861 152.837 26.066 152.505 25.9375C152.174 25.8091 151.823 25.7725 151.455 25.7725L150.552 25.7908C150.239 25.8091 149.999 25.8642 149.815 25.9559C149.63 26.0476 149.52 26.2127 149.446 26.4512C149.372 26.6896 149.335 27.0382 149.335 27.5151V30.1749L151.787 30.1932L151.694 28.6707H152.856V32.7063H151.897V32.7613Z" fill="white"/>
<path d="M157.518 36.0997C157.85 36.0813 158.09 36.0263 158.274 35.9346C158.458 35.8429 158.569 35.6594 158.643 35.4026C158.716 35.1458 158.753 34.7973 158.753 34.357V27.4049C158.753 27.1114 158.753 26.8363 158.772 26.5611C158.79 26.286 158.808 26.0842 158.808 25.9374C158.606 25.9558 158.385 25.9558 158.126 25.9558C157.868 25.9558 157.666 25.9741 157.518 25.9741V24.8185C158.274 24.8002 159.048 24.8002 159.804 24.8002C160.578 24.8002 161.352 24.8002 162.107 24.7818C163.176 24.7635 164.079 24.9102 164.853 25.167C165.627 25.4238 166.217 25.8457 166.623 26.396C167.028 26.9463 167.231 27.6617 167.231 28.5239C167.231 28.9824 167.139 29.441 166.936 29.918C166.752 30.3765 166.438 30.7984 166.033 31.1836C165.609 31.5689 165.074 31.8807 164.411 32.1375C163.748 32.3943 162.937 32.5227 161.978 32.5411C161.794 32.5411 161.61 32.5411 161.444 32.5411C161.278 32.5411 161.094 32.5411 160.928 32.5227V34.3937C160.928 34.7239 160.928 35.0174 160.909 35.2742C160.891 35.5494 160.873 35.7511 160.854 35.8979C161.002 35.8795 161.167 35.8795 161.37 35.8795C161.554 35.8795 161.739 35.8612 161.941 35.8612C162.144 35.8612 162.292 35.8612 162.384 35.8612V37.0168H157.5V36.0997H157.518ZM160.946 31.4771C161.094 31.4955 161.241 31.4955 161.389 31.5138C161.536 31.5322 161.683 31.5322 161.849 31.5322C162.494 31.5322 163.047 31.4221 163.508 31.1836C163.95 30.9452 164.3 30.615 164.54 30.1748C164.78 29.7345 164.89 29.2026 164.89 28.5789C164.89 28.0102 164.816 27.5517 164.651 27.1848C164.485 26.8179 164.264 26.5428 164.006 26.3593C163.729 26.1759 163.434 26.0292 163.121 25.9741C162.789 25.9008 162.476 25.8641 162.144 25.8641C161.849 25.8641 161.61 25.9191 161.444 26.0108C161.278 26.1025 161.149 26.2676 161.094 26.5061C161.038 26.7446 161.002 27.0747 161.002 27.4783V31.4771H160.946Z" fill="white"/>
<path d="M169.203 37.0536V36.0998C169.516 36.0814 169.756 36.0264 169.94 35.9347C170.106 35.843 170.235 35.6595 170.308 35.4211C170.382 35.1826 170.419 34.8341 170.419 34.3755V27.4234C170.419 27.1299 170.419 26.8547 170.437 26.5796C170.456 26.3044 170.474 26.1026 170.474 25.9559C170.272 25.9742 170.05 25.9742 169.792 25.9742C169.534 25.9742 169.332 25.9926 169.184 25.9926V24.8369H173.847V25.7908C173.534 25.8091 173.276 25.8642 173.11 25.9559C172.944 26.0476 172.796 26.231 172.741 26.4695C172.686 26.708 172.631 27.0565 172.631 27.5151V29.9364L173.736 29.8997C174.732 29.863 175.561 29.9364 176.206 30.1198C176.851 30.3033 177.367 30.5784 177.717 30.9086C178.086 31.2571 178.325 31.6423 178.473 32.0826C178.62 32.5228 178.694 32.9814 178.694 33.4583C178.694 34.2288 178.51 34.8891 178.159 35.4211C177.809 35.953 177.312 36.3382 176.685 36.6134C176.058 36.8885 175.358 37.0169 174.584 37.0169H169.203V37.0536ZM172.575 35.9897C172.723 36.0081 172.889 36.0081 173.091 36.0081C173.276 36.0081 173.46 36.0081 173.626 36.0081C173.792 36.0081 173.939 36.0081 174.05 36.0081C174.547 35.9897 174.953 35.8797 175.284 35.6779C175.616 35.4761 175.874 35.1826 176.058 34.7974C176.243 34.4122 176.316 33.9719 176.316 33.4216C176.316 32.798 176.206 32.3027 175.985 31.9542C175.764 31.6056 175.469 31.3488 175.1 31.2021C174.732 31.0553 174.326 30.982 173.865 30.982C173.644 30.982 173.423 30.982 173.22 30.982C173.018 30.982 172.815 31.0003 172.612 31.0187C172.612 31.8991 172.612 32.6145 172.612 33.2015C172.612 33.7885 172.612 34.2654 172.612 34.614C172.612 34.9625 172.594 35.256 172.594 35.4578C172.612 35.6779 172.594 35.8613 172.575 35.9897ZM179.191 37.0536V36.0998C179.523 36.0814 179.763 36.0264 179.947 35.9347C180.131 35.843 180.242 35.6595 180.316 35.4027C180.389 35.1459 180.426 34.7974 180.426 34.3572V27.405C180.426 27.1115 180.426 26.8364 180.445 26.5612C180.463 26.2861 180.463 26.0843 180.482 25.9375C180.297 25.9559 180.076 25.9559 179.818 25.9559C179.56 25.9559 179.357 25.9742 179.191 25.9742V24.8186H183.873V25.7725C183.559 25.7908 183.301 25.8458 183.135 25.9375C182.951 26.0293 182.822 26.2127 182.748 26.4512C182.675 26.6896 182.638 27.0382 182.638 27.4967V34.4122C182.638 34.724 182.638 35.0175 182.619 35.2743C182.601 35.5495 182.583 35.7512 182.564 35.898C182.767 35.8797 182.988 35.8797 183.264 35.8613C183.522 35.843 183.725 35.843 183.891 35.843V36.9986H179.191V37.0536Z" fill="white"/>
</g>
<defs>
<clipPath id="clip0_71_3018">
<rect width="192" height="64" fill="white"/>
</clipPath>
</defs>
</svg>
