<svg width="192" height="64" viewBox="0 0 192 64" fill="none" xmlns="http://www.w3.org/2000/svg">
<g clip-path="url(#clip0_71_2399)">
<path d="M13.3062 35.4577V34.7973L10.8367 35.7145V36.3749V43.1619V51.0679L13.3062 52.4803V45.6016V43.1436H22.7422C31.3304 43.1436 38.3337 36.1731 38.3337 27.6251C38.3337 27.1298 38.3153 26.6345 38.26 26.1576C38.1678 25.112 37.9467 24.0848 37.6518 23.1126C37.4122 22.3239 37.0989 21.5534 36.7487 20.838C36.288 19.9025 35.7351 19.0037 35.0901 18.1782C32.2335 14.4912 27.7551 12.1249 22.7422 12.1249H12.0715H10.8367V16.2339V27.2032V27.8635L13.3062 26.9464V26.286V17.041V16.2339V14.5829H22.7422C26.7046 14.5829 30.2431 16.3439 32.6389 19.0954C33.3393 19.8842 33.929 20.7647 34.4082 21.7002C34.7768 22.4156 35.0901 23.186 35.3297 23.9748C35.6245 24.9653 35.7904 25.9925 35.8273 27.0564C35.8273 27.2399 35.8641 27.4417 35.8641 27.6251C35.8641 34.834 29.9666 40.6856 22.7422 40.6856H13.3062V38.2275V35.4577Z" fill="#C63527"/>
<path d="M45.4844 0.880467C38.5548 2.21953 31.1461 2.89824 23.4794 2.89824C15.8126 2.89824 8.40392 2.21953 1.47437 0.880467L0 0.605316V15.9404L2.46957 15.0232V3.5586C9.1411 4.75092 16.1997 5.3379 23.4794 5.3379C30.7591 5.3379 37.8176 4.73257 44.4892 3.5586V15.5368V17.9581L39.0524 19.9759C39.4026 20.7096 39.6974 21.4801 39.9555 22.2505L46.1478 19.9392L46.9403 19.6457V0.605316L45.4844 0.880467Z" fill="#C63527"/>
<path d="M44.4892 35.2926V43.1803C44.4892 46.8306 42.5172 50.2241 39.3473 52.0584L23.4794 61.1751L13.3062 55.3236L10.8366 53.9111L7.61144 52.0584C4.44154 50.2424 2.46957 46.8306 2.46957 43.1803V38.6494V36.2281L10.8366 33.1097L13.3062 32.1926L23.9217 28.2488L33.0075 24.8736C32.7863 24.0665 32.4915 23.3144 32.086 22.599L23.0555 25.9558L13.2878 29.5878L10.8182 30.505L0.774045 34.247L0 34.5222V43.1803C0 47.6927 2.45114 51.9117 6.37666 54.1679L10.8366 56.736L11.5922 57.1762L23.4794 64L40.5821 54.1679C44.5076 51.9117 46.9587 47.6927 46.9587 43.1803V35.2926V32.3393L44.4892 33.2565V35.2926Z" fill="#C63527"/>
<path d="M64.7066 51.6549H61.9606L61.3524 53.3609H60.4678L62.9742 46.849H63.7298L66.2362 53.3609H65.3516L64.7066 51.6549ZM62.237 50.9579H64.467L63.3428 47.9129L62.237 50.9579Z" fill="#75787B"/>
<path d="M67.3974 52.6822L67.6923 52.3336C68.024 51.9117 68.2083 51.2881 68.2452 50.4443L68.3189 48.5182H71.4519V52.6822H72.0785V54.7916H71.2492V53.3609H67.8581V54.7916H67.0288V52.6822H67.3974ZM68.3926 52.6822H70.6226V49.2703H69.1298L69.0745 50.4259C69.0192 51.3981 68.7981 52.1502 68.3926 52.6822Z" fill="#75787B"/>
<path d="M73.5344 53.3609V48.5182H75.4327C76.0777 48.5182 76.5753 48.6283 76.9255 48.8484C77.2756 49.0685 77.4415 49.3987 77.4415 49.8389C77.4415 50.0591 77.3678 50.2608 77.2388 50.4443C77.1098 50.6277 76.907 50.7561 76.649 50.8662C76.9439 50.9395 77.1835 51.0679 77.3494 51.2697C77.5337 51.4715 77.6074 51.71 77.6074 51.9851C77.6074 52.4254 77.4415 52.7739 77.1098 53.0123C76.778 53.2508 76.3173 53.3609 75.7091 53.3609H73.5344ZM74.3638 50.5727H75.4327C76.2067 50.5727 76.5937 50.3526 76.5937 49.894C76.5937 49.4354 76.2251 49.1969 75.488 49.1969H74.3453V50.5727H74.3638ZM74.3638 51.233V52.7005H75.746C76.0961 52.7005 76.3542 52.6271 76.52 52.4987C76.6859 52.3703 76.778 52.1869 76.778 51.9668C76.778 51.4898 76.4279 51.233 75.7091 51.233H74.3638Z" fill="#75787B"/>
<path d="M78.9711 50.8845C78.9711 50.4076 79.0632 49.9857 79.2475 49.6005C79.4318 49.2153 79.6898 48.9218 80.0216 48.72C80.3533 48.5182 80.7403 48.4081 81.1642 48.4081C81.8277 48.4081 82.3621 48.6283 82.7676 49.0868C83.173 49.5454 83.3758 50.1508 83.3758 50.9028V50.9579C83.3758 51.4348 83.2836 51.8567 83.0993 52.2236C82.915 52.5904 82.657 52.8839 82.3253 53.104C81.9935 53.3058 81.6065 53.4159 81.1642 53.4159C80.5007 53.4159 79.9663 53.1774 79.5608 52.7372C79.1554 52.2786 78.9526 51.6733 78.9526 50.9212V50.8845H78.9711ZM79.8004 50.9946C79.8004 51.5265 79.9294 51.9668 80.169 52.2969C80.4086 52.6271 80.7587 52.7922 81.1826 52.7922C81.6065 52.7922 81.9382 52.6271 82.1963 52.2969C82.4543 51.9668 82.5648 51.5082 82.5648 50.9028C82.5648 50.3709 82.4358 49.949 82.1778 49.6188C81.9198 49.2886 81.5881 49.1235 81.1642 49.1235C80.7587 49.1235 80.427 49.2886 80.169 49.6188C79.9294 49.9123 79.8004 50.3892 79.8004 50.9946Z" fill="#75787B"/>
<path d="M86.4168 51.2881H85.8086V53.3609H84.9792V48.5182H85.8086V50.5727H86.3615L88.0017 48.5182H89.0153L87.0987 50.8478L89.1812 53.3609H88.1307L86.4168 51.2881Z" fill="#75787B"/>
<path d="M93.3462 53.3608C93.2909 53.2691 93.254 53.104 93.2356 52.8472C92.8486 53.2508 92.3878 53.4526 91.8534 53.4526C91.3742 53.4526 90.9872 53.3242 90.6739 53.049C90.3606 52.7739 90.2131 52.4437 90.2131 52.0218C90.2131 51.5082 90.4159 51.123 90.7844 50.8478C91.153 50.5727 91.7059 50.4259 92.4063 50.4259H93.2172V50.0407C93.2172 49.7472 93.125 49.5271 92.9591 49.3437C92.7933 49.1786 92.5353 49.0868 92.1851 49.0868C91.8902 49.0868 91.6322 49.1602 91.4295 49.307C91.2268 49.4537 91.1346 49.6371 91.1346 49.8573H90.3053C90.3053 49.6188 90.3974 49.3803 90.5633 49.1602C90.7292 48.9401 90.9687 48.7567 91.2636 48.6283C91.5585 48.4999 91.8902 48.4265 92.2404 48.4265C92.7933 48.4265 93.2356 48.5732 93.5673 48.8484C93.8991 49.1235 94.0465 49.5087 94.0649 50.004V52.2419C94.0649 52.6821 94.1202 53.0307 94.2308 53.3058V53.3792H93.3462V53.3608ZM91.964 52.7188C92.222 52.7188 92.48 52.6455 92.7011 52.5171C92.9223 52.3886 93.1066 52.2052 93.2172 51.9851V50.9946H92.5721C91.5585 50.9946 91.0425 51.2881 91.0425 51.8934C91.0425 52.1502 91.1346 52.352 91.3005 52.4987C91.4664 52.6455 91.6875 52.7188 91.964 52.7188Z" fill="#75787B"/>
<path d="M99.3542 49.1786H97.714V53.3609H96.8846V49.1786H95.2812V48.4999H99.3542V49.1786Z" fill="#75787B"/>
<path d="M102.229 52.7739C102.524 52.7739 102.782 52.6822 103.003 52.4987C103.225 52.3153 103.354 52.0952 103.372 51.82H104.164C104.146 52.0952 104.054 52.352 103.87 52.6088C103.685 52.8656 103.464 53.0674 103.169 53.2141C102.874 53.3609 102.561 53.4342 102.229 53.4342C101.566 53.4342 101.031 53.2141 100.644 52.7739C100.257 52.3336 100.055 51.7283 100.055 50.9579V50.8111C100.055 50.3342 100.147 49.9123 100.313 49.5454C100.479 49.1786 100.737 48.8851 101.068 48.6833C101.4 48.4815 101.787 48.3715 102.229 48.3715C102.782 48.3715 103.225 48.5365 103.593 48.8667C103.962 49.1969 104.146 49.6188 104.164 50.1324H103.372C103.354 49.8206 103.225 49.5638 103.022 49.362C102.801 49.1602 102.543 49.0502 102.229 49.0502C101.806 49.0502 101.474 49.1969 101.253 49.5087C101.031 49.8206 100.902 50.2425 100.902 50.8295V50.9946C100.902 51.5449 101.013 51.9851 101.253 52.2786C101.492 52.5721 101.787 52.7739 102.229 52.7739Z" fill="#75787B"/>
<path d="M107.076 51.2881H106.468V53.3609H105.639V48.5182H106.468V50.5727H107.021L108.661 48.5182H109.675L107.758 50.8478L109.841 53.3609H108.79L107.076 51.2881Z" fill="#75787B"/>
<path d="M110.67 50.8845C110.67 50.4076 110.762 49.9857 110.947 49.6005C111.131 49.2153 111.389 48.9218 111.721 48.72C112.052 48.5182 112.439 48.4081 112.863 48.4081C113.527 48.4081 114.061 48.6283 114.467 49.0868C114.872 49.5454 115.075 50.1508 115.075 50.9028V50.9579C115.075 51.4348 114.983 51.8567 114.798 52.2236C114.614 52.5904 114.356 52.8839 114.024 53.104C113.693 53.3058 113.306 53.4159 112.863 53.4159C112.2 53.4159 111.665 53.1774 111.26 52.7372C110.854 52.2786 110.652 51.6733 110.652 50.9212V50.8845H110.67ZM111.518 50.9946C111.518 51.5265 111.647 51.9668 111.887 52.2969C112.126 52.6271 112.476 52.7922 112.9 52.7922C113.324 52.7922 113.656 52.6271 113.914 52.2969C114.172 51.9668 114.282 51.5082 114.282 50.9028C114.282 50.3709 114.153 49.949 113.895 49.6188C113.637 49.2886 113.306 49.1235 112.882 49.1235C112.476 49.1235 112.145 49.2886 111.887 49.6188C111.647 49.9123 111.518 50.3892 111.518 50.9946Z" fill="#75787B"/>
<path d="M118.632 53.4526C117.968 53.4526 117.434 53.2325 117.028 52.8106C116.623 52.3887 116.402 51.8017 116.402 51.0863V50.9396C116.402 50.4626 116.494 50.0224 116.678 49.6555C116.862 49.2703 117.12 48.9768 117.452 48.775C117.784 48.5733 118.153 48.4632 118.521 48.4632C119.148 48.4632 119.645 48.665 119.996 49.0869C120.346 49.5088 120.53 50.0958 120.53 50.8662V51.2147H117.231C117.249 51.6916 117.379 52.0768 117.655 52.3703C117.931 52.6638 118.263 52.8106 118.687 52.8106C118.982 52.8106 119.221 52.7555 119.424 52.6271C119.627 52.5171 119.811 52.352 119.959 52.1502L120.475 52.5354C120.069 53.1408 119.443 53.4526 118.632 53.4526ZM118.521 49.1052C118.189 49.1052 117.913 49.2336 117.673 49.4721C117.434 49.7105 117.305 50.0591 117.249 50.4993H119.682V50.4443C119.664 50.0224 119.535 49.6922 119.332 49.4721C119.129 49.252 118.871 49.1052 118.521 49.1052Z" fill="#75787B"/>
<path d="M126.833 48.7934C127.441 48.7934 127.939 48.9951 128.307 49.3987C128.676 49.8022 128.86 50.3342 128.86 51.0129V51.0863C128.86 51.5449 128.768 51.9484 128.602 52.3153C128.418 52.6822 128.178 52.9573 127.847 53.1591C127.515 53.3609 127.128 53.4526 126.704 53.4526C126.059 53.4526 125.524 53.2325 125.119 52.7922C124.713 52.352 124.511 51.7833 124.511 51.0496V50.646C124.511 49.6372 124.695 48.8117 125.082 48.2247C125.469 47.6377 126.022 47.2525 126.759 47.1241C127.183 47.0507 127.459 46.959 127.607 46.849C127.754 46.7389 127.828 46.5922 127.828 46.4087H128.51C128.51 46.7756 128.418 47.0691 128.252 47.2892C128.086 47.5093 127.81 47.6377 127.441 47.7294L126.814 47.8762C126.317 47.9863 125.948 48.188 125.709 48.4632C125.469 48.7383 125.303 49.1052 125.229 49.5638C125.672 49.0502 126.206 48.7934 126.833 48.7934ZM126.667 49.4721C126.262 49.4721 125.93 49.6005 125.69 49.8756C125.451 50.1508 125.322 50.5176 125.322 51.0129V51.0863C125.322 51.5999 125.451 52.0218 125.69 52.3153C125.93 52.6088 126.262 52.7739 126.667 52.7739C127.072 52.7739 127.404 52.6271 127.644 52.3153C127.883 52.0035 128.012 51.5632 128.012 50.9762C128.012 50.5176 127.883 50.1508 127.644 49.8756C127.404 49.6005 127.091 49.4721 126.667 49.4721Z" fill="#75787B"/>
<path d="M131.09 50.5727H132.251C132.307 49.9306 132.546 49.417 132.952 49.0135C133.357 48.6099 133.855 48.4265 134.463 48.4265C135.089 48.4265 135.624 48.6466 136.029 49.0685C136.435 49.4904 136.656 50.059 136.693 50.7377V50.9946C136.693 51.4715 136.601 51.8934 136.416 52.2786C136.232 52.6638 135.974 52.9573 135.642 53.1591C135.311 53.3608 134.924 53.4709 134.481 53.4709C133.855 53.4709 133.339 53.2691 132.952 52.8656C132.546 52.462 132.325 51.9301 132.288 51.2697H131.127V53.3792H130.298V48.5365H131.127V50.5727H131.09ZM133.081 50.9946C133.081 51.5265 133.21 51.9668 133.449 52.2969C133.689 52.6271 134.039 52.7922 134.463 52.7922C134.887 52.7922 135.218 52.6271 135.476 52.2969C135.716 51.9668 135.845 51.5082 135.845 50.9212C135.845 50.3892 135.716 49.9673 135.458 49.6371C135.2 49.307 134.868 49.1419 134.444 49.1419C134.039 49.1419 133.689 49.307 133.449 49.6371C133.191 49.9123 133.081 50.3892 133.081 50.9946Z" fill="#75787B"/>
<path d="M142.258 50.9946C142.258 51.7283 142.093 52.3336 141.742 52.7739C141.411 53.2324 140.95 53.4526 140.36 53.4526C139.77 53.4526 139.31 53.2691 138.96 52.9023V55.2319H138.13V48.5182H138.886L138.923 49.0502C139.254 48.6283 139.734 48.4265 140.342 48.4265C140.932 48.4265 141.392 48.6466 141.724 49.0868C142.056 49.5271 142.24 50.1324 142.24 50.9212V50.9946H142.258ZM141.429 50.9028C141.429 50.3525 141.319 49.9306 141.079 49.6005C140.839 49.2886 140.526 49.1235 140.121 49.1235C139.623 49.1235 139.236 49.3437 138.978 49.7839V52.0952C139.236 52.5354 139.605 52.7555 140.121 52.7555C140.526 52.7555 140.839 52.6088 141.079 52.2786C141.319 51.9484 141.429 51.5082 141.429 50.9028Z" fill="#75787B"/>
<path d="M143.567 50.8845C143.567 50.4076 143.659 49.9857 143.843 49.6005C144.028 49.2153 144.286 48.9218 144.618 48.72C144.949 48.5182 145.336 48.4081 145.76 48.4081C146.424 48.4081 146.958 48.6283 147.364 49.0868C147.769 49.5454 147.972 50.1508 147.972 50.9028V50.9579C147.972 51.4348 147.88 51.8567 147.695 52.2236C147.511 52.5904 147.253 52.8839 146.921 53.104C146.589 53.3058 146.202 53.4159 145.76 53.4159C145.097 53.4159 144.562 53.1774 144.157 52.7372C143.751 52.2786 143.549 51.6733 143.549 50.9212V50.8845H143.567ZM144.396 50.9946C144.396 51.5265 144.525 51.9668 144.765 52.2969C145.005 52.6271 145.355 52.7922 145.779 52.7922C146.202 52.7922 146.534 52.6271 146.792 52.2969C147.05 51.9668 147.161 51.5082 147.161 50.9028C147.161 50.3709 147.032 49.949 146.774 49.6188C146.516 49.2886 146.184 49.1235 145.76 49.1235C145.355 49.1235 145.023 49.2886 144.765 49.6188C144.525 49.9123 144.396 50.3892 144.396 50.9946Z" fill="#75787B"/>
<path d="M65.7018 16.2522C65.112 16.2522 64.5223 16.1789 63.8957 16.0504C63.2691 15.922 62.6793 15.6652 62.0896 15.28C61.4998 14.8948 60.9654 14.3629 60.4678 13.6475L61.205 13.0421C61.6841 13.7208 62.2739 14.2161 62.9558 14.5463C63.6377 14.8765 64.3749 15.0416 65.1489 15.0416C65.6465 15.0416 66.1257 14.9498 66.568 14.7664C67.0103 14.583 67.3789 14.3078 67.6553 13.9226C67.9318 13.5374 68.0792 13.0605 68.0792 12.4735C68.0792 11.9599 67.9686 11.538 67.7659 11.1895C67.5448 10.8226 67.2683 10.5658 66.8997 10.3823C66.5311 10.1989 66.1072 10.1072 65.6465 10.1072H63.7114V9.04328H65.2779C65.8124 9.04328 66.2547 8.93322 66.568 8.73145C66.8997 8.52967 67.1393 8.25452 67.2683 7.906C67.4157 7.55747 67.4895 7.1906 67.4895 6.76871C67.4895 5.99829 67.3052 5.44798 66.955 5.09946C66.5864 4.75094 66.0888 4.5675 65.4622 4.5675C64.6329 4.5675 63.9878 4.82431 63.5087 5.31958C63.0295 5.81485 62.6609 6.58527 62.4029 7.59416H61.4445V3.61365H62.6609L62.5872 4.45744C62.9926 4.21898 63.3612 4.03555 63.7114 3.8888C64.0616 3.74205 64.3933 3.65034 64.725 3.57696C65.0567 3.52193 65.4253 3.48524 65.8492 3.48524C66.6601 3.4669 67.3605 3.5953 67.9502 3.85211C68.54 4.10892 68.9823 4.45744 69.2956 4.91603C69.6089 5.37461 69.7563 5.88823 69.7563 6.49356C69.7563 7.17226 69.5352 7.77759 69.0744 8.29121C68.6137 8.80482 67.9686 9.17169 67.1209 9.39181V9.44684C68.2266 9.57524 69.0744 9.90542 69.6457 10.4557C70.2171 10.9877 70.5119 11.6847 70.5119 12.5102C70.5119 13.0972 70.3829 13.6291 70.1065 14.1061C69.83 14.583 69.4614 14.9682 69.0007 15.2984C68.54 15.6286 68.0239 15.867 67.4526 16.0321C66.8813 16.1972 66.2731 16.2522 65.7018 16.2522Z" fill="#1D2022"/>
<path d="M71.7468 15.9587V14.9682C72.0786 14.9682 72.3366 14.8765 72.5393 14.693C72.742 14.5096 72.9079 14.2528 73.0369 13.9593C73.1659 13.6475 73.2949 13.2989 73.4423 12.9321L76.9256 3.46689H77.8655L81.662 13.0972C81.7357 13.2989 81.8278 13.5741 81.9384 13.941C82.049 14.3078 82.1227 14.6197 82.1227 14.8765C82.3254 14.8581 82.5097 14.8581 82.694 14.8398C82.8783 14.8214 83.0442 14.8214 83.1916 14.8214V15.9587H78.7317V15.0049C79.1003 15.0049 79.3398 14.9315 79.4688 14.7847C79.5979 14.638 79.6531 14.4362 79.6347 14.1978C79.6163 13.9593 79.561 13.7025 79.4504 13.4457L79.0081 12.2534L74.9536 12.3267L74.5666 13.5007C74.4928 13.7025 74.4191 13.9226 74.327 14.1794C74.2348 14.4362 74.1427 14.6563 74.0505 14.8581C74.2533 14.8398 74.4928 14.8398 74.7509 14.8214C75.0089 14.8031 75.2116 14.8031 75.359 14.8031V15.9587H71.7468ZM75.3406 11.2078H78.6395L77.6996 8.63972C77.5522 8.25451 77.4232 7.85095 77.3126 7.4474C77.1836 7.04384 77.0914 6.67698 76.9993 6.3468H76.9624C76.8887 6.58526 76.815 6.87875 76.7044 7.24562C76.6122 7.61249 76.4648 8.03439 76.2989 8.51131L75.3406 11.2078Z" fill="#1D2022"/>
<path d="M84.7949 15.9587V15.0049C85.1267 14.9865 85.3662 14.9315 85.5505 14.8398C85.7348 14.7481 85.8454 14.5646 85.9191 14.3078C85.9928 14.051 86.0297 13.7025 86.0297 13.2622V6.32845C86.0297 6.03495 86.0297 5.7598 86.0481 5.48465C86.0666 5.2095 86.085 5.00773 86.085 4.86098C85.8823 4.87932 85.6611 4.87932 85.4031 4.87932C85.1451 4.87932 84.9424 4.89766 84.7949 4.89766V3.76038H96.6636V4.71423C96.3503 4.73257 96.0923 4.7876 95.9264 4.87932C95.7606 4.97104 95.6131 5.15447 95.5578 5.39294C95.5025 5.6314 95.4473 5.97992 95.4473 6.43851V13.354C95.4473 13.6658 95.4473 13.9593 95.4288 14.2161C95.4104 14.4912 95.392 14.693 95.3735 14.8398C95.5763 14.8214 95.7974 14.8214 96.0554 14.8031C96.3134 14.7847 96.5162 14.7847 96.6636 14.7847V15.9587H91.9825V15.0049C92.3142 14.9865 92.5538 14.9315 92.7381 14.8398C92.9224 14.7481 93.0514 14.5646 93.1067 14.3078C93.1804 14.051 93.2173 13.7025 93.2173 13.2622V4.86098L89.4208 4.91601C89.1259 4.93435 88.8863 4.97104 88.7204 5.06275C88.5546 5.13613 88.4256 5.28288 88.3334 5.503C88.2597 5.70477 88.2044 6.01661 88.2044 6.42016V13.3723C88.2044 13.6841 88.2044 13.9776 88.186 14.2344C88.1675 14.5096 88.1491 14.7114 88.1307 14.8581C88.3334 14.8398 88.5546 14.8398 88.8126 14.8214C89.0706 14.8031 89.2733 14.8031 89.4208 14.8031V15.9587H84.7949Z" fill="#1D2022"/>
<path d="M104.902 16.2522C103.796 16.2522 102.856 16.0688 102.064 15.7019C101.29 15.335 100.644 14.8398 100.165 14.2161C99.6861 13.5924 99.336 12.9137 99.0964 12.1433C98.8752 11.3912 98.7646 10.6391 98.7646 9.86872C98.7646 9.13499 98.8937 8.40125 99.1332 7.64917C99.3728 6.8971 99.7599 6.21839 100.257 5.57637C100.755 4.93436 101.4 4.43908 102.174 4.05387C102.948 3.66866 103.851 3.48523 104.883 3.48523C105.952 3.48523 106.874 3.66866 107.648 4.05387C108.422 4.43908 109.067 4.9527 109.564 5.57637C110.062 6.21839 110.431 6.8971 110.67 7.64917C110.91 8.40125 111.02 9.13499 111.02 9.86872C111.02 10.5841 110.891 11.3178 110.652 12.0699C110.412 12.822 110.025 13.5007 109.528 14.1427C109.012 14.7664 108.385 15.28 107.611 15.6836C106.837 16.0871 105.934 16.2522 104.902 16.2522ZM105.031 15.17C105.676 15.17 106.229 15.0232 106.689 14.7114C107.132 14.3995 107.5 14.0143 107.777 13.5191C108.053 13.0238 108.256 12.4918 108.403 11.9048C108.532 11.3178 108.606 10.7492 108.606 10.1622C108.606 9.39179 108.532 8.65806 108.366 7.97935C108.201 7.30065 107.961 6.71366 107.648 6.20005C107.334 5.68643 106.929 5.28288 106.431 4.98939C105.934 4.69589 105.381 4.54914 104.736 4.56749C104.091 4.58583 103.556 4.73258 103.096 5.04442C102.653 5.35625 102.285 5.75981 101.99 6.25508C101.695 6.75035 101.492 7.28231 101.363 7.86929C101.234 8.45628 101.179 9.04327 101.179 9.61191C101.179 10.1989 101.253 10.8042 101.382 11.4462C101.529 12.0883 101.75 12.6936 102.045 13.2622C102.34 13.8309 102.745 14.2895 103.243 14.638C103.741 14.9865 104.33 15.17 105.031 15.17Z" fill="#1D2022"/>
<path d="M114.596 16.2522C114.043 16.2522 113.582 16.1238 113.213 15.867C112.845 15.6102 112.679 15.2617 112.679 14.8214C112.679 14.4546 112.79 14.1427 112.992 13.8859C113.195 13.6291 113.508 13.5007 113.932 13.5007C114.301 13.4824 114.577 13.5924 114.743 13.7942C114.909 13.996 115.001 14.2344 115.001 14.5096C115.001 14.7114 114.964 14.8765 114.854 15.0049C114.927 15.0599 115.02 15.0782 115.112 15.0782C115.278 15.0782 115.499 14.9315 115.738 14.6196C115.978 14.3262 116.199 13.8492 116.439 13.1889C116.66 12.5285 116.844 11.7031 117.01 10.7125C117.176 9.70363 117.268 8.49296 117.286 7.09887L117.323 4.87932H116.918L115.425 4.93435V3.76038H124.75V4.71423C124.437 4.73257 124.179 4.7876 124.013 4.87932C123.847 4.97104 123.7 5.15447 123.645 5.39294C123.589 5.6314 123.534 5.97992 123.534 6.43851V13.354C123.534 13.6658 123.534 13.9593 123.516 14.2161C123.497 14.5096 123.479 14.7114 123.46 14.8581C123.663 14.8398 123.903 14.8398 124.161 14.8214C124.419 14.8031 124.621 14.8031 124.75 14.8031V15.9587H120.088V15.0049C120.419 14.9865 120.659 14.9315 120.843 14.8398C121.028 14.7481 121.138 14.5646 121.212 14.3078C121.286 14.051 121.322 13.7025 121.322 13.2622V4.86098L119.572 4.89766C119.166 4.91601 118.871 5.00772 118.724 5.17282C118.558 5.35625 118.484 5.6314 118.466 6.0533C118.447 7.39236 118.374 8.60302 118.245 9.68528C118.116 10.7675 117.95 11.7214 117.729 12.5468C117.508 13.3723 117.231 14.051 116.918 14.6013C116.604 15.1516 116.254 15.5552 115.867 15.8303C115.48 16.1055 115.056 16.2522 114.596 16.2522Z" fill="#1D2022"/>
<path d="M131.938 4.71423C131.625 4.73257 131.367 4.7876 131.201 4.87932C131.035 4.97104 130.887 5.15447 130.832 5.39294C130.777 5.6314 130.722 5.97992 130.722 6.43851V8.85983L131.827 8.82314C132.859 8.78646 133.689 8.85983 134.352 9.04326C134.997 9.2267 135.513 9.50185 135.9 9.83203C136.269 10.1806 136.527 10.5658 136.674 11.006C136.822 11.4462 136.896 11.9048 136.896 12.3818C136.896 13.1522 136.711 13.8125 136.361 14.3445C135.992 14.8765 135.495 15.2617 134.868 15.5368C134.223 15.812 133.504 15.9404 132.712 15.9404H127.312V15.0049C127.625 14.9865 127.865 14.9315 128.049 14.8398C128.215 14.7481 128.344 14.5646 128.418 14.3262C128.492 14.0877 128.528 13.7392 128.528 13.2806V6.32845C128.528 6.03495 128.528 5.7598 128.547 5.48465C128.565 5.2095 128.584 5.00773 128.584 4.86098C128.381 4.87932 128.16 4.87932 127.902 4.87932C127.644 4.87932 127.441 4.89766 127.294 4.89766V3.76038H131.956V4.71423H131.938ZM130.703 13.4273C130.703 13.7392 130.703 14.0327 130.685 14.2895C130.666 14.5463 130.648 14.7481 130.629 14.8948C130.777 14.9131 130.943 14.9131 131.146 14.9131C131.33 14.9131 131.514 14.9131 131.68 14.9131C131.846 14.9131 131.993 14.9131 132.104 14.9131C132.878 14.8948 133.468 14.6563 133.855 14.2161C134.26 13.7759 134.463 13.1522 134.463 12.3451C134.463 11.7214 134.352 11.2261 134.131 10.8776C133.91 10.5291 133.615 10.2723 133.228 10.1255C132.841 9.97878 132.417 9.9054 131.938 9.9054C131.717 9.9054 131.496 9.9054 131.293 9.9054C131.09 9.9054 130.887 9.92375 130.685 9.94209V13.4273H130.703Z" fill="#1D2022"/>
<path d="M148.211 7.66752C148.064 6.65863 147.732 5.88821 147.179 5.35625C146.626 4.8243 145.926 4.56749 145.041 4.56749C144.415 4.56749 143.862 4.69589 143.383 4.97104C142.904 5.24619 142.498 5.61306 142.148 6.08999C141.816 6.56692 141.558 7.09887 141.392 7.72255C141.226 8.34622 141.134 9.00658 141.134 9.72197C141.134 10.7492 141.3 11.6664 141.632 12.4551C141.964 13.2439 142.424 13.8676 143.033 14.3262C143.641 14.7847 144.341 15.0049 145.152 15.0049C145.908 15.0049 146.645 14.8214 147.363 14.4546C148.101 14.0877 148.69 13.5741 149.17 12.8954L149.888 13.5374C149.335 14.2895 148.764 14.8398 148.138 15.2433C147.511 15.6285 146.921 15.9037 146.331 16.0321C145.742 16.1605 145.207 16.2339 144.728 16.2339C143.825 16.2339 143.014 16.0688 142.277 15.7569C141.54 15.4451 140.913 14.9865 140.379 14.4362C139.844 13.8676 139.439 13.2072 139.144 12.4735C138.849 11.7214 138.72 10.9143 138.72 10.0338C138.72 9.2267 138.849 8.43794 139.089 7.66752C139.347 6.8971 139.715 6.1817 140.231 5.55803C140.747 4.93436 141.374 4.42074 142.148 4.05387C142.922 3.68701 143.807 3.48523 144.82 3.48523C145.336 3.48523 145.871 3.5586 146.424 3.72369C146.976 3.88878 147.511 4.1089 147.99 4.42074L147.916 3.61363H149.133V7.66752H148.211Z" fill="#1D2022"/>
<path d="M151.787 15.9587V15.0049C152.118 14.9865 152.358 14.9315 152.542 14.8398C152.727 14.7481 152.837 14.5646 152.911 14.3078C152.985 14.051 153.021 13.7025 153.021 13.2622V6.32845C153.021 6.03495 153.021 5.7598 153.04 5.48465C153.058 5.2095 153.077 5.00773 153.077 4.86098C152.874 4.87932 152.653 4.87932 152.395 4.87932C152.137 4.87932 151.934 4.89766 151.787 4.89766V3.76038H156.449V4.71423C156.136 4.73257 155.878 4.7876 155.712 4.87932C155.546 4.97104 155.399 5.15447 155.344 5.39294C155.288 5.6314 155.233 5.97992 155.233 6.43851V9.17167H156.505L158.126 6.51188C158.292 6.20004 158.495 5.86986 158.716 5.55803C158.937 5.22785 159.14 5.00773 159.324 4.86098C159.14 4.87932 158.937 4.87932 158.753 4.87932C158.569 4.87932 158.384 4.89766 158.237 4.89766V3.76038H162.347V4.71423C162.015 4.73257 161.702 4.7876 161.37 4.89766C161.038 5.00773 160.725 5.17282 160.393 5.44797C160.062 5.72312 159.73 6.14501 159.38 6.69531L157.684 9.39179C157.961 9.55688 158.182 9.74031 158.384 9.92375C158.587 10.1072 158.753 10.3273 158.919 10.5474L160.78 13.1155C161.075 13.519 161.37 13.8676 161.628 14.1427C161.886 14.4179 162.144 14.638 162.402 14.7664C162.66 14.9131 162.9 14.9865 163.158 14.9865V15.9587H160.651C160.522 15.9587 160.375 15.8487 160.154 15.6652C159.951 15.4818 159.73 15.2433 159.509 14.9682C159.287 14.693 159.066 14.4362 158.882 14.1977L157.021 11.593C156.836 11.3545 156.652 11.1161 156.468 10.8776C156.265 10.6391 156.081 10.4557 155.915 10.3273L155.215 10.3456V13.3723C155.215 13.6841 155.215 13.9776 155.196 14.2344C155.178 14.5096 155.159 14.7114 155.141 14.8581C155.344 14.8398 155.565 14.8398 155.823 14.8214C156.081 14.8031 156.283 14.8031 156.431 14.8031V15.9587H151.787Z" fill="#1D2022"/>
<path d="M169.442 4.71423C169.129 4.73257 168.871 4.7876 168.705 4.87932C168.539 4.97104 168.392 5.15447 168.336 5.39294C168.281 5.6314 168.226 5.97992 168.226 6.43851V13.354C168.226 13.6658 168.226 13.9593 168.207 14.2161C168.189 14.4912 168.171 14.693 168.152 14.8398C168.355 14.8214 168.576 14.8214 168.834 14.8031C169.092 14.7847 169.295 14.7847 169.442 14.7847V15.9587H164.78V15.0049C165.111 14.9865 165.351 14.9315 165.535 14.8398C165.719 14.7481 165.83 14.5646 165.904 14.3078C165.977 14.051 166.014 13.7025 166.014 13.2622V6.32845C166.014 6.03495 166.014 5.7598 166.033 5.48465C166.051 5.2095 166.07 5.00773 166.07 4.86098C165.867 4.87932 165.646 4.87932 165.388 4.89766C165.13 4.89766 164.927 4.91601 164.78 4.91601V3.76038H169.442V4.71423ZM174.732 4.40239L175.469 5.11778L166.973 15.3167L166.199 14.5646L174.732 4.40239ZM177.146 4.71423C176.833 4.73257 176.575 4.7876 176.409 4.87932C176.243 4.97104 176.095 5.15447 176.022 5.39294C175.948 5.6314 175.911 5.97992 175.911 6.43851V13.354C175.911 13.6658 175.911 13.9593 175.911 14.2161C175.911 14.4912 175.893 14.693 175.874 14.8398C176.058 14.8214 176.28 14.8214 176.556 14.8031C176.814 14.7847 177.017 14.7847 177.183 14.7847V15.9587H172.502V15.0049C172.833 14.9865 173.073 14.9315 173.257 14.8398C173.423 14.7481 173.552 14.5646 173.626 14.3078C173.699 14.051 173.736 13.7025 173.736 13.2622V6.32845C173.736 6.03495 173.736 5.7598 173.755 5.48465C173.773 5.2095 173.773 5.00773 173.792 4.86098C173.607 4.87932 173.386 4.87932 173.128 4.87932C172.87 4.87932 172.667 4.89766 172.502 4.89766V3.76038H177.183V4.71423H177.146Z" fill="#1D2022"/>
<path d="M184.296 4.71424C183.983 4.73258 183.725 4.78761 183.559 4.87933C183.393 4.97104 183.246 5.15448 183.191 5.39294C183.135 5.6314 183.08 5.97993 183.08 6.43851V13.354C183.08 13.6658 183.08 13.9593 183.062 14.2161C183.043 14.4912 183.025 14.693 183.006 14.8398C183.209 14.8214 183.43 14.8214 183.688 14.8031C183.946 14.7847 184.149 14.7847 184.296 14.7847V15.9587H179.634V15.0049C179.966 14.9865 180.205 14.9315 180.389 14.8398C180.574 14.7481 180.684 14.5646 180.758 14.3078C180.832 14.051 180.869 13.7025 180.869 13.2622V6.32845C180.869 6.03496 180.869 5.75981 180.887 5.48466C180.905 5.20951 180.924 5.00773 180.924 4.86098C180.721 4.87933 180.5 4.87933 180.242 4.87933C179.984 4.87933 179.781 4.89767 179.634 4.89767V3.76038H184.296V4.71424ZM189.604 4.4024L190.341 5.11779L181.827 15.335L181.053 14.583L189.604 4.4024ZM183.633 -9.10554e-06C183.891 -0.0183525 184.094 0.0366776 184.223 0.165081C184.352 0.293485 184.462 0.403545 184.518 0.550292C184.573 0.697039 184.61 0.807099 184.61 0.898816C184.61 1.00888 184.591 1.11894 184.573 1.24734C184.555 1.37574 184.499 1.4858 184.444 1.59586C184.61 1.72427 184.813 1.81598 185.052 1.88936C185.292 1.94439 185.55 1.98107 185.826 1.98107C186.103 1.98107 186.361 1.94439 186.619 1.88936C186.858 1.81598 187.061 1.72427 187.208 1.59586C187.098 1.3574 187.042 1.13728 187.042 0.898816C187.042 0.807099 187.061 0.678695 187.116 0.550292C187.172 0.403545 187.264 0.275141 187.411 0.165081C187.559 0.055021 187.724 -0.0183525 187.982 -9.10554e-06C188.277 -9.10554e-06 188.517 0.110051 188.664 0.311828C188.812 0.513605 188.885 0.752069 188.885 1.02722C188.885 1.39409 188.738 1.72427 188.462 1.98107C188.167 2.23788 187.798 2.43966 187.337 2.56806C186.877 2.69647 186.361 2.76984 185.808 2.76984C185.255 2.76984 184.757 2.69647 184.278 2.56806C183.817 2.43966 183.43 2.23788 183.154 1.98107C182.877 1.72427 182.73 1.41243 182.73 1.02722C182.73 0.752069 182.804 0.513605 182.951 0.311828C183.099 0.110051 183.32 -9.10554e-06 183.633 -9.10554e-06ZM192 4.71424C191.687 4.73258 191.429 4.78761 191.263 4.87933C191.097 4.97104 190.95 5.15448 190.876 5.39294C190.802 5.6314 190.765 5.97993 190.765 6.43851V13.354C190.765 13.6658 190.765 13.9593 190.765 14.2161C190.765 14.4912 190.747 14.693 190.728 14.8398C190.913 14.8214 191.134 14.8214 191.41 14.8031C191.668 14.7847 191.871 14.7847 192.037 14.7847V15.9587H187.356V15.0049C187.688 14.9865 187.927 14.9315 188.111 14.8398C188.277 14.7481 188.406 14.5646 188.48 14.3078C188.554 14.051 188.591 13.7025 188.591 13.2622V6.32845C188.591 6.03496 188.591 5.75981 188.609 5.48466C188.627 5.20951 188.627 5.00773 188.646 4.86098C188.462 4.87933 188.24 4.87933 187.982 4.87933C187.724 4.87933 187.522 4.89767 187.356 4.89767V3.76038H192.037V4.71424H192Z" fill="#1D2022"/>
<path d="M65.4623 25.8091C65.149 25.8275 64.8909 25.8825 64.7251 25.9742C64.5592 26.0659 64.4118 26.2494 64.3565 26.4878C64.3012 26.7263 64.2459 27.0748 64.2459 27.5334V34.4488C64.2459 34.7607 64.2459 35.0542 64.2275 35.311C64.209 35.5861 64.1906 35.7879 64.1722 35.9347C64.3749 35.9163 64.5961 35.9163 64.8541 35.898C65.1121 35.8796 65.3148 35.8796 65.4623 35.8796V37.0353H60.7996V36.0814C61.1313 36.0631 61.3709 36.008 61.5552 35.9163C61.7395 35.8246 61.85 35.6412 61.9238 35.3844C61.9975 35.1275 62.0343 34.779 62.0343 34.3388V27.3866C62.0343 27.0932 62.0343 26.818 62.0528 26.5429C62.0712 26.2677 62.0896 26.0659 62.0896 25.9192C61.8869 25.9375 61.6658 25.9375 61.4077 25.9375C61.1497 25.9375 60.947 25.9559 60.7996 25.9559V24.8002H65.4623V25.8091ZM70.7516 25.4973L71.4888 26.2127L62.9743 36.4299L62.2002 35.6778L70.7516 25.4973ZM73.1658 25.8091C72.8525 25.8275 72.5945 25.8825 72.4287 25.9742C72.2628 26.0659 72.1154 26.2494 72.0416 26.4878C71.9679 26.7263 71.9311 27.0748 71.9311 27.5334V34.4488C71.9311 34.7607 71.9311 35.0542 71.9311 35.311C71.9311 35.5861 71.9126 35.7879 71.8942 35.9347C72.0785 35.9163 72.2997 35.9163 72.5761 35.898C72.8341 35.8796 73.0368 35.8796 73.2027 35.8796V37.0353H68.5216V36.0814C68.8533 36.0631 69.0929 36.008 69.2772 35.9163C69.4431 35.8246 69.5721 35.6412 69.6458 35.3844C69.7195 35.1275 69.7564 34.779 69.7564 34.3388V27.3866C69.7564 27.0932 69.7564 26.818 69.7748 26.5429C69.7932 26.2677 69.7932 26.0659 69.8117 25.9192C69.6274 25.9375 69.4062 25.9375 69.1482 25.9375C68.8902 25.9375 68.6874 25.9559 68.5216 25.9559V24.8002H73.2027V25.8091H73.1658Z" fill="#1D2022"/>
<path d="M80.9614 37.0536V36.0997C81.2932 36.0814 81.5327 36.0264 81.717 35.9347C81.9013 35.8429 82.0119 35.6595 82.0856 35.4027C82.1594 35.1459 82.1962 34.7974 82.1962 34.3571V27.405C82.1962 27.1115 82.1962 26.8363 82.2146 26.5612C82.2331 26.286 82.2515 26.0843 82.2515 25.9375C82.0488 25.9559 81.8276 25.9559 81.5696 25.9559C81.3116 25.9559 81.1089 25.9742 80.9614 25.9742V24.8186H92.8301V25.7724C92.5168 25.7908 92.2588 25.8458 92.0929 25.9375C91.9271 26.0292 91.7796 26.2127 91.7243 26.4511C91.669 26.6896 91.6138 27.0381 91.6138 27.4967V34.4122C91.6138 34.724 91.6138 35.0175 91.5953 35.2743C91.5769 35.5494 91.5585 35.7512 91.54 35.898C91.7428 35.8796 91.9639 35.8796 92.2219 35.8613C92.48 35.8429 92.6827 35.8429 92.8301 35.8429V36.9986H88.149V36.0447C88.4807 36.0264 88.7203 35.9713 88.9046 35.8796C89.0889 35.7879 89.2179 35.6045 89.2732 35.3477C89.3469 35.0909 89.3838 34.7423 89.3838 34.3021V25.8825L85.5873 25.9375C85.2924 25.9559 85.0528 25.9925 84.8869 26.0843C84.7211 26.1576 84.5921 26.3044 84.4999 26.5245C84.4262 26.7263 84.3709 27.0381 84.3709 27.4417V34.3938C84.3709 34.7056 84.3709 34.9991 84.3525 35.2559C84.3341 35.5311 84.3156 35.7329 84.2972 35.8796C84.4999 35.8613 84.7211 35.8613 84.9791 35.8429C85.2371 35.8246 85.4398 35.8246 85.5873 35.8246V36.9802H80.9614V37.0536Z" fill="#1D2022"/>
<path d="M94.4705 37.0536V36.0631C94.8022 36.0631 95.0602 35.9713 95.2629 35.7879C95.4657 35.6045 95.6315 35.3477 95.7605 35.0542C95.8895 34.7423 96.0186 34.3938 96.166 34.0269L99.6492 24.5618H100.589L104.386 34.192C104.459 34.3938 104.551 34.669 104.662 35.0358C104.773 35.4027 104.846 35.7145 104.846 35.9713C105.049 35.953 105.233 35.953 105.418 35.9347C105.602 35.9163 105.768 35.9163 105.915 35.9163V37.0719H101.455V36.1181C101.824 36.1181 102.063 36.0447 102.192 35.898C102.321 35.7512 102.377 35.5494 102.358 35.311C102.34 35.0725 102.285 34.8157 102.174 34.5589L101.732 33.3666L97.6772 33.4216L97.2902 34.5956C97.2165 34.7974 97.1428 35.0175 97.0506 35.2743C96.9585 35.5311 96.8663 35.7512 96.7742 35.953C96.9769 35.9347 97.2165 35.9347 97.4745 35.9163C97.7325 35.898 97.9352 35.898 98.0827 35.898V37.0903H94.4705V37.0536ZM98.0458 32.3027H101.345L100.405 29.7346C100.257 29.3494 100.128 28.9458 100.018 28.5423C99.9072 28.1387 99.7966 27.7719 99.7045 27.4417H99.6676C99.5939 27.6801 99.5202 27.9736 99.4096 28.3405C99.3175 28.7074 99.17 29.1293 99.0042 29.6062L98.0458 32.3027Z" fill="#1D2022"/>
<path d="M107.5 36.0997C107.832 36.0814 108.072 36.0264 108.256 35.9346C108.44 35.8429 108.551 35.6595 108.624 35.4027C108.698 35.1459 108.735 34.7973 108.735 34.3571V27.405C108.735 27.1115 108.735 26.8363 108.753 26.5612C108.772 26.286 108.79 26.0843 108.79 25.9375C108.588 25.9558 108.366 25.9558 108.108 25.9558C107.85 25.9558 107.648 25.9742 107.5 25.9742V24.8186C108.256 24.8002 109.03 24.8002 109.786 24.8002C110.56 24.8002 111.334 24.8002 112.089 24.7819C113.158 24.7635 114.061 24.9103 114.835 25.1671C115.609 25.4239 116.199 25.8458 116.604 26.3961C117.01 26.9464 117.213 27.6618 117.213 28.5239C117.213 28.9825 117.121 29.4411 116.918 29.918C116.733 30.3766 116.42 30.7985 116.015 31.1837C115.591 31.5689 115.056 31.8808 114.393 32.1376C113.729 32.3944 112.919 32.5228 111.96 32.5411C111.776 32.5411 111.592 32.5411 111.426 32.5411C111.26 32.5411 111.076 32.5411 110.91 32.5228V34.3938C110.91 34.724 110.91 35.0175 110.891 35.2743C110.873 35.5494 110.854 35.7512 110.836 35.898C110.983 35.8796 111.149 35.8796 111.352 35.8796C111.536 35.8796 111.721 35.8613 111.923 35.8613C112.126 35.8613 112.274 35.8613 112.366 35.8613V37.0169H107.482V36.0997H107.5ZM110.947 31.4772C111.094 31.4955 111.241 31.4955 111.389 31.5139C111.536 31.5322 111.684 31.5322 111.85 31.5322C112.495 31.5322 113.048 31.4222 113.508 31.1837C113.951 30.9452 114.301 30.6151 114.54 30.1748C114.78 29.7346 114.891 29.2026 114.891 28.5789C114.891 28.0103 114.817 27.5517 114.651 27.1849C114.485 26.818 114.264 26.5428 114.006 26.3594C113.729 26.176 113.435 26.0292 113.121 25.9742C112.79 25.9008 112.476 25.8641 112.145 25.8641C111.85 25.8641 111.61 25.9192 111.444 26.0109C111.278 26.1026 111.149 26.2677 111.094 26.5061C111.039 26.7446 111.002 27.0748 111.002 27.4783V31.4772H110.947Z" fill="#1D2022"/>
<path d="M128.289 28.7074C128.289 28.0653 128.215 27.515 128.049 27.0931C127.883 26.6713 127.644 26.3594 127.331 26.1393C127.017 25.9375 126.612 25.8275 126.114 25.8458H125.045V34.4488C125.045 34.7607 125.045 35.0542 125.027 35.311C125.008 35.5678 124.99 35.7879 124.972 35.9347C125.193 35.9163 125.451 35.9163 125.727 35.898C126.022 35.8796 126.225 35.8796 126.391 35.8796V37.0353H121.617V36.0814C121.949 36.0631 122.189 36.008 122.373 35.9163C122.539 35.8062 122.668 35.6412 122.742 35.3844C122.815 35.1459 122.852 34.7974 122.852 34.3571L122.871 25.8458H121.728C121.046 25.8641 120.512 26.0843 120.161 26.5428C119.811 27.0014 119.627 27.7168 119.627 28.689H118.65L118.742 24.8369H129.229L129.339 28.689H128.289V28.7074Z" fill="#1D2022"/>
<path d="M131.238 37.0536V36.0997C131.569 36.0814 131.809 36.0264 131.993 35.9347C132.177 35.8429 132.288 35.6595 132.362 35.4027C132.435 35.1459 132.472 34.7974 132.472 34.3571V27.405C132.472 27.1115 132.472 26.8363 132.491 26.5612C132.509 26.286 132.528 26.0843 132.528 25.9375C132.325 25.9559 132.104 25.9559 131.846 25.9559C131.588 25.9559 131.385 25.9742 131.238 25.9742V24.8186H135.9V25.7724C135.587 25.7908 135.329 25.8458 135.163 25.9375C134.997 26.0292 134.85 26.2127 134.794 26.4511C134.739 26.6896 134.684 27.0381 134.684 27.4967V30.2666H139.973V27.3683C139.973 27.0748 139.973 26.7997 139.992 26.5245C140.01 26.2494 140.028 26.0476 140.047 25.9008C139.844 25.9192 139.623 25.9192 139.365 25.9192C139.107 25.9192 138.904 25.9375 138.757 25.9375V24.7819H143.42V25.7357C143.106 25.7541 142.848 25.8091 142.682 25.9008C142.516 25.9926 142.369 26.176 142.314 26.4144C142.258 26.6529 142.203 27.0014 142.203 27.46V34.3755C142.203 34.6873 142.203 34.9808 142.185 35.2376C142.166 35.4944 142.148 35.7145 142.129 35.8613C142.332 35.8429 142.553 35.8429 142.83 35.8246C143.088 35.8063 143.291 35.8063 143.438 35.8063V36.9619H138.775V36.008C139.107 35.9897 139.347 35.9347 139.531 35.8429C139.715 35.7512 139.826 35.5678 139.899 35.311C139.973 35.0542 140.01 34.7057 140.01 34.2654V31.3121L134.721 31.3855V34.3571C134.721 34.669 134.721 34.9625 134.702 35.2193C134.684 35.4944 134.665 35.6962 134.647 35.8429C134.85 35.8246 135.071 35.8246 135.329 35.8063C135.587 35.7879 135.79 35.7879 135.937 35.7879V36.9435H131.238V37.0536Z" fill="#1D2022"/>
<path d="M151.897 32.7613C151.897 32.266 151.824 31.8991 151.676 31.679C151.529 31.4589 151.326 31.3305 151.049 31.2754C150.773 31.2204 150.441 31.2204 150.054 31.2204L149.335 31.2571V34.4855C149.335 34.7974 149.335 35.0909 149.317 35.3477C149.299 35.6045 149.28 35.8063 149.262 35.9713L151.934 35.953C152.34 35.953 152.708 35.8796 153.058 35.7145C153.39 35.5678 153.666 35.2926 153.888 34.9074C154.09 34.5222 154.201 34.0086 154.201 33.3666H155.159L155.067 37.0536H145.889V36.0997C146.221 36.0814 146.46 36.0264 146.645 35.9347C146.829 35.8429 146.94 35.6595 147.013 35.4027C147.087 35.1459 147.124 34.7974 147.124 34.3571V27.405C147.124 27.1115 147.124 26.8363 147.142 26.5612C147.161 26.286 147.179 26.0843 147.179 25.9375C146.977 25.9559 146.755 25.9559 146.497 25.9559C146.239 25.9559 146.037 25.9742 145.889 25.9742V24.8186H154.514L154.625 28.102H153.666C153.666 27.4417 153.556 26.9464 153.335 26.6162C153.114 26.286 152.837 26.0659 152.505 25.9375C152.174 25.8091 151.823 25.7724 151.455 25.7724L150.552 25.7908C150.239 25.8091 149.999 25.8641 149.815 25.9559C149.63 26.0476 149.52 26.2127 149.446 26.4511C149.372 26.6896 149.335 27.0381 149.335 27.515V30.1748L151.787 30.1932L151.694 28.6707H152.856V32.7062H151.897V32.7613Z" fill="#1D2022"/>
<path d="M157.518 36.0997C157.85 36.0814 158.09 36.0264 158.274 35.9346C158.458 35.8429 158.569 35.6595 158.643 35.4027C158.716 35.1459 158.753 34.7973 158.753 34.3571V27.405C158.753 27.1115 158.753 26.8363 158.772 26.5612C158.79 26.286 158.808 26.0843 158.808 25.9375C158.606 25.9558 158.385 25.9558 158.126 25.9558C157.868 25.9558 157.666 25.9742 157.518 25.9742V24.8186C158.274 24.8002 159.048 24.8002 159.804 24.8002C160.578 24.8002 161.352 24.8002 162.107 24.7819C163.176 24.7635 164.079 24.9103 164.853 25.1671C165.627 25.4239 166.217 25.8458 166.623 26.3961C167.028 26.9464 167.231 27.6618 167.231 28.5239C167.231 28.9825 167.139 29.4411 166.936 29.918C166.752 30.3766 166.438 30.7985 166.033 31.1837C165.609 31.5689 165.074 31.8808 164.411 32.1376C163.748 32.3944 162.937 32.5228 161.978 32.5411C161.794 32.5411 161.61 32.5411 161.444 32.5411C161.278 32.5411 161.094 32.5411 160.928 32.5228V34.3938C160.928 34.724 160.928 35.0175 160.909 35.2743C160.891 35.5494 160.873 35.7512 160.854 35.898C161.002 35.8796 161.167 35.8796 161.37 35.8796C161.554 35.8796 161.739 35.8613 161.941 35.8613C162.144 35.8613 162.292 35.8613 162.384 35.8613V37.0169H157.5V36.0997H157.518ZM160.946 31.4772C161.094 31.4955 161.241 31.4955 161.389 31.5139C161.536 31.5322 161.683 31.5322 161.849 31.5322C162.494 31.5322 163.047 31.4222 163.508 31.1837C163.95 30.9452 164.3 30.6151 164.54 30.1748C164.78 29.7346 164.89 29.2026 164.89 28.5789C164.89 28.0103 164.816 27.5517 164.651 27.1849C164.485 26.818 164.264 26.5428 164.006 26.3594C163.729 26.176 163.434 26.0292 163.121 25.9742C162.789 25.9008 162.476 25.8641 162.144 25.8641C161.849 25.8641 161.61 25.9192 161.444 26.0109C161.278 26.1026 161.149 26.2677 161.094 26.5061C161.038 26.7446 161.002 27.0748 161.002 27.4783V31.4772H160.946Z" fill="#1D2022"/>
<path d="M169.203 37.0536V36.0997C169.516 36.0814 169.756 36.0264 169.94 35.9347C170.106 35.8429 170.235 35.6595 170.308 35.421C170.382 35.1826 170.419 34.8341 170.419 34.3755V27.4233C170.419 27.1298 170.419 26.8547 170.437 26.5795C170.456 26.3044 170.474 26.1026 170.474 25.9559C170.272 25.9742 170.05 25.9742 169.792 25.9742C169.534 25.9742 169.332 25.9925 169.184 25.9925V24.8369H173.847V25.7908C173.534 25.8091 173.276 25.8641 173.11 25.9559C172.944 26.0476 172.796 26.231 172.741 26.4695C172.686 26.7079 172.631 27.0565 172.631 27.515V29.9364L173.736 29.8997C174.732 29.863 175.561 29.9364 176.206 30.1198C176.851 30.3032 177.367 30.5784 177.717 30.9086C178.086 31.2571 178.325 31.6423 178.473 32.0825C178.62 32.5228 178.694 32.9814 178.694 33.4583C178.694 34.2287 178.51 34.8891 178.159 35.421C177.809 35.953 177.312 36.3382 176.685 36.6134C176.058 36.8885 175.358 37.0169 174.584 37.0169H169.203V37.0536ZM172.575 35.9897C172.723 36.008 172.889 36.008 173.091 36.008C173.276 36.008 173.46 36.008 173.626 36.008C173.792 36.008 173.939 36.008 174.05 36.008C174.547 35.9897 174.953 35.8796 175.284 35.6778C175.616 35.4761 175.874 35.1826 176.058 34.7974C176.243 34.4122 176.316 33.9719 176.316 33.4216C176.316 32.7979 176.206 32.3027 175.985 31.9541C175.764 31.6056 175.469 31.3488 175.1 31.2021C174.732 31.0553 174.326 30.9819 173.865 30.9819C173.644 30.9819 173.423 30.9819 173.22 30.9819C173.018 30.9819 172.815 31.0003 172.612 31.0186C172.612 31.8991 172.612 32.6145 172.612 33.2015C172.612 33.7885 172.612 34.2654 172.612 34.6139C172.612 34.9625 172.594 35.2559 172.594 35.4577C172.612 35.6778 172.594 35.8613 172.575 35.9897ZM179.191 37.0536V36.0997C179.523 36.0814 179.763 36.0264 179.947 35.9347C180.131 35.8429 180.242 35.6595 180.316 35.4027C180.389 35.1459 180.426 34.7974 180.426 34.3571V27.405C180.426 27.1115 180.426 26.8363 180.445 26.5612C180.463 26.286 180.463 26.0843 180.482 25.9375C180.297 25.9559 180.076 25.9559 179.818 25.9559C179.56 25.9559 179.357 25.9742 179.191 25.9742V24.8186H183.873V25.7724C183.559 25.7908 183.301 25.8458 183.135 25.9375C182.951 26.0292 182.822 26.2127 182.748 26.4511C182.675 26.6896 182.638 27.0381 182.638 27.4967V34.4122C182.638 34.724 182.638 35.0175 182.619 35.2743C182.601 35.5494 182.583 35.7512 182.564 35.898C182.767 35.8796 182.988 35.8796 183.264 35.8613C183.522 35.8429 183.725 35.8429 183.891 35.8429V36.9986H179.191V37.0536Z" fill="#1D2022"/>
</g>
<defs>
<clipPath id="clip0_71_2399">
<rect width="192" height="64" fill="white"/>
</clipPath>
</defs>
</svg>
