<svg width="20" height="20" viewBox="0 0 20 20" fill="none" xmlns="http://www.w3.org/2000/svg">
<g clip-path="url(#clip0_469_16657)">
<path d="M10 11.6666C11.3807 11.6666 12.5 10.5473 12.5 9.16663C12.5 7.78591 11.3807 6.66663 10 6.66663C8.61929 6.66663 7.5 7.78591 7.5 9.16663C7.5 10.5473 8.61929 11.6666 10 11.6666Z" stroke="#C63527" stroke-linecap="round" stroke-linejoin="round"/>
<path d="M14.7129 13.8808L11.177 17.4167C10.8645 17.7289 10.4409 17.9042 9.99912 17.9042C9.55738 17.9042 9.13371 17.7289 8.8212 17.4167L5.28453 13.8808C4.35222 12.9485 3.71731 11.7606 3.46011 10.4674C3.2029 9.17419 3.33494 7.83376 3.83954 6.61561C4.34413 5.39745 5.19861 4.35628 6.29494 3.62376C7.39126 2.89123 8.68017 2.50024 9.9987 2.50024C11.3172 2.50024 12.6061 2.89123 13.7025 3.62376C14.7988 4.35628 15.6533 5.39745 16.1579 6.61561C16.6625 7.83376 16.7945 9.17419 16.5373 10.4674C16.2801 11.7606 15.6452 12.9485 14.7129 13.8808V13.8808Z" stroke="#C63527" stroke-linecap="round" stroke-linejoin="round"/>
</g>
<defs>
<clipPath id="clip0_469_16657">
<rect width="20" height="20" fill="white"/>
</clipPath>
</defs>
</svg>
