<svg width="53" height="53" viewBox="0 0 53 53" fill="none" xmlns="http://www.w3.org/2000/svg">
<g clip-path="url(#clip0_457_7693)">
<path d="M26.5448 41.686V53.0001" stroke="#C63527" stroke-miterlimit="10" stroke-linecap="round"/>
<path d="M24.0013 44.3967L26.503 41.895L29.0046 44.3967" stroke="#C63527" stroke-miterlimit="10" stroke-linecap="round"/>
<path d="M26.4552 11.3141V0" stroke="#C63527" stroke-miterlimit="10" stroke-linecap="round"/>
<path d="M29.0046 8.60938L26.503 11.111L24.0013 8.60938" stroke="#C63527" stroke-miterlimit="10" stroke-linecap="round"/>
<path d="M11.3141 26.5449H0" stroke="#C63527" stroke-miterlimit="10" stroke-linecap="round"/>
<path d="M8.6095 24.0015L11.1111 26.5031L8.6095 29.0047" stroke="#C63527" stroke-miterlimit="10" stroke-linecap="round"/>
<path d="M41.6859 26.4556H53" stroke="#C63527" stroke-miterlimit="10" stroke-linecap="round"/>
<path d="M44.3965 29.0047L41.8949 26.5031L44.3965 24.0015" stroke="#C63527" stroke-miterlimit="10" stroke-linecap="round"/>
<path d="M15.792 37.2739L7.7915 45.2744" stroke="#C63527" stroke-miterlimit="10" stroke-linecap="round"/>
<path d="M12.0784 37.3872H15.6189V40.9217" stroke="#C63527" stroke-miterlimit="10" stroke-linecap="round"/>
<path d="M37.2081 15.7324L45.2086 7.73193" stroke="#C63527" stroke-miterlimit="10" stroke-linecap="round"/>
<path d="M40.9217 15.6191H37.3872V12.0786" stroke="#C63527" stroke-miterlimit="10" stroke-linecap="round"/>
<path d="M15.7323 15.792L7.73181 7.7915" stroke="#C63527" stroke-miterlimit="10" stroke-linecap="round"/>
<path d="M15.6189 12.0781V15.6186H12.0784" stroke="#C63527" stroke-miterlimit="10" stroke-linecap="round"/>
<path d="M37.2738 37.208L45.2743 45.2085" stroke="#C63527" stroke-miterlimit="10" stroke-linecap="round"/>
<path d="M37.3872 40.9217V37.3872H40.9217" stroke="#C63527" stroke-miterlimit="10" stroke-linecap="round"/>
<path d="M26.2881 24.0908C28.4545 24.0908 30.2107 22.3346 30.2107 20.1682C30.2107 18.0018 28.4545 16.2456 26.2881 16.2456C24.1217 16.2456 22.3655 18.0018 22.3655 20.1682C22.3655 22.3346 24.1217 24.0908 26.2881 24.0908Z" stroke="#C63527" stroke-miterlimit="10"/>
<path d="M31.9302 34.8913H20.646C19.6071 34.8913 18.7712 34.0495 18.7712 33.0166V31.2135C18.7712 28.5746 20.9146 26.4312 23.5536 26.4312H29.0285C31.6675 26.4312 33.8109 28.5746 33.8109 31.2135V33.0166C33.8049 34.0555 32.9691 34.8913 31.9302 34.8913Z" stroke="#C63527" stroke-miterlimit="10"/>
</g>
<defs>
<clipPath id="clip0_457_7693">
<rect width="53" height="53" fill="white"/>
</clipPath>
</defs>
</svg>
