<svg width="61" height="51" viewBox="0 0 61 51" fill="none" xmlns="http://www.w3.org/2000/svg">
<path d="M14 41.9898C18.2289 46.313 24.1597 49 30.7296 49C43.5847 49 54 38.7 54 26" stroke="#C63527" stroke-miterlimit="10" stroke-linecap="round"/>
<path d="M47 8.37849C42.7568 4.42685 37.0222 2 30.7076 2C17.617 2 7 12.4407 7 25.3141C7 27.2753 7.24856 29.1784 7.71016 31" stroke="#C63527" stroke-miterlimit="10" stroke-linecap="round"/>
<path d="M23.2183 25.3738H16.4345V24.6858L20.1486 20.4635C20.7637 19.7519 21.1914 19.1639 21.4257 18.6993C21.66 18.2347 21.783 17.7878 21.783 17.3467C21.783 16.6587 21.5839 16.1177 21.1796 15.7178C20.7754 15.3179 20.2248 15.118 19.5218 15.118C18.7954 15.118 18.2037 15.3532 17.7526 15.8178C17.3015 16.2882 17.0789 16.8939 17.0789 17.6408H16.1943C16.1943 17.0292 16.3349 16.4705 16.6044 15.9707C16.8797 15.4708 17.2722 15.0709 17.7819 14.7887C18.2916 14.5005 18.8715 14.3594 19.5159 14.3594C20.506 14.3594 21.2851 14.6181 21.8416 15.1415C22.3981 15.6649 22.6793 16.3764 22.6793 17.2762C22.6793 17.7819 22.5212 18.3406 22.2048 18.9404C21.8885 19.5402 21.3378 20.2929 20.5411 21.1927L17.5241 24.6211H23.2124V25.3738H23.2183Z" fill="#C63527"/>
<path d="M30.3418 21.8689H32.0289V22.6217H30.3418V25.3679H29.4514V22.6217H24.3547V22.1159L29.3693 14.5005H30.3418V21.8689ZM25.4502 21.8689H29.4514V15.659L29.053 16.347L25.4502 21.8689Z" fill="#C63527"/>
<path d="M44.7647 29.7431L40.1367 40.0989H39.2052L43.8039 29.9901H37.647V29.2256H44.7647V29.7431Z" fill="#C63527"/>
<path d="M14.5303 31.1427C14.1487 30.2809 13.5607 29.5608 12.8475 29C13.8797 31.5323 12.6035 34.3893 9.93858 35.4518C7.27362 36.5143 4.21455 35.3632 3.0197 32.9018C2.94463 33.7754 3.08226 34.6726 3.46386 35.5344C4.74629 38.415 8.26203 39.7667 11.3148 38.5566C14.3802 37.3407 15.8127 34.0233 14.5303 31.1427Z" stroke="#C63527" stroke-miterlimit="10"/>
<path d="M41 13L29 41" stroke="#C63527" stroke-miterlimit="10" stroke-linecap="round"/>
<path d="M59 15.9766H57.3129" stroke="#C63527" stroke-miterlimit="10" stroke-linecap="round"/>
<path d="M46.5923 15.9766H44.9052" stroke="#C63527" stroke-miterlimit="10" stroke-linecap="round"/>
<path d="M51.9526 23.0506V21.3511" stroke="#C63527" stroke-miterlimit="10" stroke-linecap="round"/>
<path d="M51.9526 10.5955V8.90186" stroke="#C63527" stroke-miterlimit="10" stroke-linecap="round"/>
<path d="M56.938 20.9746L55.7429 19.7749" stroke="#C63527" stroke-miterlimit="10" stroke-linecap="round"/>
<path d="M48.1624 12.1713L46.9673 10.9717" stroke="#C63527" stroke-miterlimit="10" stroke-linecap="round"/>
<path d="M46.9673 20.9746L48.1624 19.7749" stroke="#C63527" stroke-miterlimit="10" stroke-linecap="round"/>
<path d="M55.7429 12.1713L56.938 10.9717" stroke="#C63527" stroke-miterlimit="10" stroke-linecap="round"/>
<path d="M52 20C54.2091 20 56 18.2091 56 16C56 13.7909 54.2091 12 52 12C49.7909 12 48 13.7909 48 16C48 18.2091 49.7909 20 52 20Z" stroke="#C63527" stroke-miterlimit="10"/>
<path d="M16.5282 37.2231V39.9224" stroke="#C63527" stroke-miterlimit="10" stroke-linecap="round"/>
<path d="M17.8697 38.5698H15.1866" stroke="#C63527" stroke-miterlimit="10" stroke-linecap="round"/>
<path d="M10.0782 42.5941C10.2747 42.2853 10.7253 42.2853 10.9218 42.5941L11.3201 43.2198C11.4379 43.405 11.595 43.5621 11.7802 43.6799L12.4059 44.0782C12.7147 44.2747 12.7147 44.7253 12.4059 44.9218L11.7802 45.3201C11.595 45.4379 11.4379 45.595 11.3201 45.7802L10.9218 46.4059C10.7253 46.7147 10.2747 46.7147 10.0782 46.4059L9.67993 45.7802C9.56208 45.595 9.40502 45.4379 9.21983 45.3201L8.59406 44.9218C8.28534 44.7253 8.28534 44.2747 8.59406 44.0782L9.21983 43.6799C9.40501 43.5621 9.56208 43.405 9.67993 43.2198L10.0782 42.5941Z" stroke="#C63527" stroke-linejoin="round"/>
<path d="M2.57818 25.5941C2.77466 25.2853 3.22534 25.2853 3.42182 25.5941L3.62561 25.9143C3.74347 26.0995 3.90053 26.2565 4.08571 26.3744L4.40594 26.5782C4.71466 26.7747 4.71466 27.2253 4.40594 27.4218L4.08571 27.6256C3.90053 27.7435 3.74347 27.9005 3.62561 28.0857L3.42182 28.4059C3.22534 28.7147 2.77466 28.7147 2.57818 28.4059L2.37439 28.0857C2.25653 27.9005 2.09947 27.7435 1.91428 27.6256L1.59406 27.4218C1.28534 27.2253 1.28534 26.7747 1.59406 26.5782L1.91429 26.3744C2.09947 26.2565 2.25653 26.0995 2.37439 25.9143L2.57818 25.5941Z" stroke="#C63527"/>
</svg>
